<svg width="45" height="40" viewBox="0 0 45 40" fill="none" xmlns="http://www.w3.org/2000/svg">
<path d="M14.625 31.25C13.0312 31.25 11.5078 30.9688 10.0547 30.4062C8.60156 29.8438 7.29688 29.0156 6.14062 27.9219C4.64062 26.5156 3.55469 24.8516 2.88281 22.9297C2.21094 21.0078 1.875 19.0156 1.875 16.9531C1.875 14.5156 2.46875 12.5391 3.65625 11.0234C4.84375 9.50781 6.57812 8.75 8.85938 8.75C9.29688 8.75 9.71094 8.78906 10.1016 8.86719C10.4922 8.94531 10.8906 9.0625 11.2969 9.21875L22.5 13.3906L33.7031 9.21875C34.1094 9.0625 34.5078 8.94531 34.8984 8.86719C35.2891 8.78906 35.7031 8.75 36.1406 8.75C38.4219 8.75 40.1562 9.50781 41.3438 11.0234C42.5312 12.5391 43.125 14.5156 43.125 16.9531C43.125 19.0156 42.7891 21.0078 42.1172 22.9297C41.4453 24.8516 40.3594 26.5156 38.8594 27.9219C37.7031 29.0156 36.3984 29.8438 34.9453 30.4062C33.4922 30.9688 31.9688 31.25 30.375 31.25C28.3125 31.25 26.5625 30.7812 25.125 29.8438L22.9688 28.4375H22.0312L19.875 29.8438C18.4375 30.7812 16.6875 31.25 14.625 31.25ZM14.625 28.1248C15.8438 28.1248 16.9688 27.8567 18 27.3205C19.0312 26.7839 19.9895 26.1145 20.8748 25.3123H24.1252C25.0105 26.1145 25.9688 26.7839 27 27.3205C28.0312 27.8567 29.1562 28.1248 30.375 28.1248C31.5625 28.1248 32.7214 27.9088 33.8517 27.4766C34.9817 27.0444 35.9842 26.4011 36.8592 25.5467C37.9636 24.4217 38.7631 23.0989 39.2578 21.5783C39.7525 20.0573 39.9998 18.5156 39.9998 16.9531C39.9998 15.5053 39.6873 14.2944 39.0623 13.3203C38.4373 12.3463 37.4322 11.8645 36.0469 11.8752C35.8281 11.8752 35.4114 11.9584 34.7967 12.125L22.5 16.7188L10.2033 12.125C10.0052 12.0416 9.79938 11.9791 9.58594 11.9375C9.3725 11.8959 9.15109 11.8752 8.92172 11.8752C7.53641 11.8752 6.53641 12.3595 5.92172 13.3283C5.30734 14.297 5.00016 15.5053 5.00016 16.9531C5.00016 18.5469 5.24234 20.0989 5.72672 21.6092C6.21109 23.1198 7.03141 24.448 8.18766 25.5936C9.06266 26.4373 10.0522 27.0702 11.1562 27.492C12.2603 27.9139 13.4166 28.1248 14.625 28.1248ZM16.9219 24.6875C18.0781 24.6875 18.9844 24.4297 19.6406 23.9141C20.2969 23.3984 20.625 22.6875 20.625 21.7812C20.625 20.25 19.6172 18.7891 17.6016 17.3984C15.5859 16.0078 13.4531 15.3125 11.2031 15.3125C10.0469 15.3125 9.14062 15.5703 8.48438 16.0859C7.82812 16.6016 7.5 17.3125 7.5 18.2188C7.5 19.75 8.50781 21.2109 10.5234 22.6016C12.5391 23.9922 14.6719 24.6875 16.9219 24.6875ZM16.6406 22.0311C15.4322 22.0311 14.1067 21.6145 12.6642 20.7814C11.2214 19.948 10.375 19.0938 10.125 18.2188C10.3438 18.1353 10.5598 18.065 10.7733 18.0078C10.987 17.9506 11.2136 17.922 11.453 17.922C12.6614 17.922 13.9922 18.3464 15.4453 19.1952C16.8984 20.0442 17.75 20.9062 18 21.7812C17.7812 21.8647 17.5598 21.9272 17.3358 21.9688C17.112 22.0103 16.8803 22.0311 16.6406 22.0311ZM28.0781 24.7344C30.3281 24.7344 32.4609 24.0312 34.4766 22.625C36.4922 21.2188 37.5 19.75 37.5 18.2188C37.5 17.3125 37.1797 16.5938 36.5391 16.0625C35.8984 15.5312 34.9844 15.2656 33.7969 15.2656C31.5469 15.2656 29.4141 15.9688 27.3984 17.375C25.3828 18.7812 24.375 20.25 24.375 21.7812C24.375 22.6875 24.7031 23.4062 25.3594 23.9375C26.0156 24.4688 26.9219 24.7344 28.0781 24.7344ZM28.328 22.0311C28.0886 22.0311 27.8698 22.0103 27.6717 21.9688C27.4739 21.9272 27.2656 21.8647 27.0469 21.7812C27.3178 20.9062 28.1642 20.052 29.5861 19.2186C31.008 18.3855 32.3334 17.9689 33.5625 17.9689C33.8022 17.9689 34.0261 17.9897 34.2342 18.0312C34.4427 18.0728 34.6562 18.1353 34.875 18.2188C34.6041 19.0938 33.7525 19.948 32.3203 20.7814C30.8881 21.6145 29.5573 22.0311 28.328 22.0311Z" fill="#0065B0"/>
</svg>
