<svg width="40" height="40" viewBox="0 0 40 40" fill="none" xmlns="http://www.w3.org/2000/svg">
<path id="Vector" d="M7.5 33.3333H10V30H30V33.3333H32.5V24.4444C32.5 23.2222 32.0104 22.1759 31.0312 21.3056C30.0521 20.4352 28.875 20 27.5 20H18.75V27.7778H10V17.7778H7.5V33.3333ZM14.375 26.6667C15.25 26.6667 15.9896 26.3981 16.5938 25.8611C17.1979 25.3241 17.5 24.6667 17.5 23.8889C17.5 23.1111 17.1979 22.4537 16.5938 21.9167C15.9896 21.3796 15.25 21.1111 14.375 21.1111C13.5 21.1111 12.7604 21.3796 12.1562 21.9167C11.5521 22.4537 11.25 23.1111 11.25 23.8889C11.25 24.6667 11.5521 25.3241 12.1562 25.8611C12.7604 26.3981 13.5 26.6667 14.375 26.6667ZM0 40V13.3333L20 0L40 13.3333V40H0ZM3.75 36.6667H36.25V14.7778L20 4.27778L3.75 14.7778V36.6667Z" fill="#0065B0"/>
</svg>
