<svg width="48" height="48" viewBox="0 0 48 48" fill="none" xmlns="http://www.w3.org/2000/svg">
<path d="M11.5 37.3333H14V34H34V37.3333H36.5V28.4444C36.5 27.2222 36.0104 26.1759 35.0312 25.3056C34.0521 24.4352 32.875 24 31.5 24H22.75V31.7778H14V21.7778H11.5V37.3333ZM18.375 30.6667C19.25 30.6667 19.9896 30.3981 20.5938 29.8611C21.1979 29.3241 21.5 28.6667 21.5 27.8889C21.5 27.1111 21.1979 26.4537 20.5938 25.9167C19.9896 25.3796 19.25 25.1111 18.375 25.1111C17.5 25.1111 16.7604 25.3796 16.1562 25.9167C15.5521 26.4537 15.25 27.1111 15.25 27.8889C15.25 28.6667 15.5521 29.3241 16.1562 29.8611C16.7604 30.3981 17.5 30.6667 18.375 30.6667ZM4 44V17.3333L24 4L44 17.3333V44H4ZM7.75 40.6667H40.25V18.7778L24 8.27778L7.75 18.7778V40.6667Z" fill="#225494"/>
</svg>
