<svg width="190" height="54" viewBox="0 0 190 54" fill="none" xmlns="http://www.w3.org/2000/svg">
<g clip-path="url(#clip0_1133_10675)">
<path d="M52.6171 4.83017C56.0281 6.49067 60.537 10.6816 61.9629 14.2641C61.9463 15.1735 61.8991 15.5079 61.262 16.1509C60.5903 16.255 60.5903 16.255 59.8601 16.1509C59.3636 15.6415 59.3636 15.6415 58.9256 14.9569C58.1969 13.8398 57.473 12.9465 56.5891 11.9056C55.5097 12.9953 54.4302 14.0849 53.3181 15.2075C53.5108 15.441 53.7036 15.6745 53.9022 15.9151C55.9001 18.6296 57.5237 22.1531 57.5237 25.5849C59.1428 25.5849 60.762 25.5849 62.4302 25.5849C62.2013 24.417 62.2013 24.417 61.9689 23.2498C61.4629 20.5991 61.4629 20.5991 62.0067 19.7034C62.5846 19.3615 62.9393 19.353 63.5985 19.4528C64.7352 20.3162 64.7958 21.8978 65.0003 23.2264C65.0805 24.3239 65.1018 25.4142 65.0917 26.5138C65.0879 26.9997 65.0917 27.4851 65.0962 27.971C65.1043 32.8114 65.1043 32.8114 63.9611 34.2717C63.5985 34.5471 63.5985 34.5471 63.0143 34.6356C62.4302 34.5471 62.4302 34.5471 62.0067 34.2966C61.2881 33.113 61.8346 31.4899 62.0944 30.219C62.2283 29.5059 62.2283 29.5059 62.1966 28.4151C60.6545 28.4151 59.1125 28.4151 57.5237 28.4151C57.4707 28.8577 57.4177 29.3004 57.3631 29.7565C56.8667 32.9835 55.3999 35.9017 53.5517 38.5566C53.783 38.7122 54.0143 38.8679 54.2527 39.0283C54.2527 39.1839 54.2527 39.3396 54.2527 39.5C54.484 39.5778 54.7153 39.6556 54.9536 39.7358C54.9536 39.8915 54.9536 40.0471 54.9536 40.2075C55.1849 40.2854 55.4162 40.3632 55.6545 40.4434C55.6545 40.599 55.6545 40.7547 55.6545 40.9151C55.8858 40.9929 56.1171 41.0707 56.3555 41.1509C56.3555 41.3066 56.3555 41.4622 56.3555 41.6226C56.9206 41.5318 57.2219 41.4568 57.6284 41.039C57.7297 40.8935 57.8309 40.748 57.9353 40.5982C58.0472 40.4404 58.1591 40.2826 58.2744 40.12C58.3881 39.9543 58.5018 39.7886 58.6189 39.6179C58.8485 39.2911 59.0782 38.9643 59.308 38.6377C59.4587 38.4194 59.4587 38.4194 59.6125 38.1968C59.8601 37.849 59.8601 37.849 60.0938 37.6132C60.7414 37.5444 61.1251 37.5274 61.6855 37.8785C62.1013 38.5413 62.0489 38.9582 61.9629 39.7358C61.6568 40.3413 61.2637 40.8643 60.8531 41.4015C60.7495 41.5427 60.6459 41.6839 60.5392 41.8294C60.2393 42.2358 59.9336 42.637 59.6265 43.0377C59.3717 43.3802 59.3717 43.3802 59.1117 43.7296C58.9732 43.8904 58.8347 44.0513 58.6919 44.217C58.5377 44.217 58.3835 44.217 58.2246 44.217C58.0704 44.5283 57.9162 44.8396 57.7573 45.1604C57.6031 45.1604 57.4489 45.1604 57.29 45.1604C57.29 45.316 57.29 45.4717 57.29 45.6321C56.745 46.1512 56.1247 46.5824 55.5231 47.0324C55.2762 47.2228 55.2762 47.2228 55.0243 47.417C54.0284 48.1685 53.0996 48.7701 51.9162 49.1698C51.1983 48.902 50.877 48.6921 50.4997 48.02C50.5226 47.2348 50.9323 46.9125 51.4489 46.3396C52.1048 45.8583 52.7681 45.4138 53.4522 44.9761C53.8083 44.7397 54.1489 44.4798 54.4863 44.217C54.5607 43.505 54.5607 43.505 54.1254 43.0685C53.9605 42.9073 53.7956 42.746 53.6257 42.5798C53.4475 42.4033 53.2694 42.2269 53.0858 42.045C52.8974 41.8619 52.709 41.6787 52.5149 41.49C52.1448 41.1265 51.7752 40.7627 51.406 40.3982C51.2408 40.2372 51.0757 40.0762 50.9055 39.9104C50.3852 39.3645 50.2889 39.1119 50.2141 38.3502C50.2943 37.4626 50.4815 37.2698 51.1131 36.6698C52.3642 35.3397 53.0786 33.8534 53.7854 32.1887C53.8703 31.9886 53.9552 31.7886 54.0427 31.5825C55.2429 28.0612 54.7118 23.752 53.2515 20.4183C52.5138 18.9415 51.5627 17.7462 50.4578 16.5296C49.9463 15.7644 49.9408 15.4095 50.0471 14.5C50.4546 13.928 50.4546 13.928 51.0181 13.3815C51.2184 13.1839 51.4187 12.9863 51.6251 12.7827C51.8368 12.5808 52.0485 12.379 52.2667 12.171C52.4784 11.9636 52.6901 11.7563 52.9083 11.5427C53.4313 11.0314 53.9573 10.5237 54.4863 10.0188C53.5126 8.98389 52.4719 8.23774 51.2919 7.46228C50.748 6.95281 50.748 6.95281 50.539 6.21302C50.5143 5.53772 50.5143 5.53772 50.7626 5.0955C51.4149 4.71318 51.8699 4.76625 52.6171 4.83017Z" fill="#B3261E"/>
<path d="M29.019 5.06587C29.4863 5.77342 29.4863 5.77342 29.4754 6.34738C29.1721 7.1717 28.7434 7.42389 28.0261 7.9108C27.3443 8.38046 26.6819 8.84007 26.0437 9.36919C25.5144 9.78285 25.5144 9.78285 25.0471 9.78285C25.8113 10.7113 26.6042 11.6003 27.4593 12.4444C27.5957 12.5792 27.732 12.714 27.8726 12.8529C28.1475 13.1228 28.424 13.3912 28.7021 13.6579C29.8354 14.771 29.8354 14.771 29.9536 15.6791C29.668 16.1526 29.668 16.1526 29.2381 16.652C27.7852 18.437 26.7211 20.3304 25.9817 22.5187C25.8979 22.7607 25.8142 23.0027 25.7279 23.252C24.7847 27.3048 25.4893 31.5447 27.6281 35.0602C28.2345 35.9453 28.9092 36.7564 29.6251 37.5532C29.9536 38.0847 29.9536 38.0847 29.9195 38.6391C29.6686 39.4248 29.3106 39.785 28.7261 40.3594C28.5265 40.5578 28.327 40.7561 28.1214 40.9605C27.9117 41.1644 27.7019 41.3682 27.4858 41.5783C27.2751 41.7867 27.0644 41.9951 26.8473 42.2098C26.3272 42.7238 25.805 43.2354 25.2807 43.7451C26.0613 44.5675 26.8563 45.2559 27.7778 45.912C28.9769 46.7686 28.9769 46.7686 29.4863 47.2828C29.437 47.9298 29.3196 48.3555 28.9752 48.9043C28.5518 49.1696 28.5518 49.1696 27.9147 49.1263C24.0094 48.1432 20.427 43.6237 18.4302 40.2737C18.0377 39.4998 18.0377 39.4998 18.0523 38.7186C18.2714 38.0847 18.2714 38.0847 18.9723 37.613C19.5418 37.6278 19.5418 37.6278 20.1405 37.8489C20.8338 38.6598 21.4467 39.5313 22.0681 40.399C22.2332 40.6292 22.3982 40.8593 22.5683 41.0964C22.6923 41.27 22.8164 41.4436 22.9443 41.6225C23.8961 41.2427 24.5249 40.5521 25.2223 39.8241C25.3407 39.7025 25.459 39.5809 25.581 39.4556C25.8714 39.1569 26.1603 38.8568 26.449 38.5564C26.3472 38.402 26.2454 38.2475 26.1405 38.0884C24.2585 35.1772 22.477 31.9929 22.477 28.4149C20.9349 28.4149 19.3929 28.4149 17.8041 28.4149C17.9567 29.5826 17.9567 29.5826 18.1117 30.75C18.4644 33.5216 18.4644 33.5216 17.9939 34.2964C17.4161 34.6383 17.0614 34.6468 16.4022 34.547C15.2654 33.6836 15.2049 32.102 15.0004 30.7734C14.9201 29.6759 14.8989 28.5856 14.909 27.486C14.9127 27.0001 14.909 26.5147 14.9045 26.0288C14.8965 21.2614 14.8965 21.2614 16.0231 19.7198C16.4022 19.4527 16.4022 19.4527 17.2492 19.4969C17.5094 19.5601 17.7696 19.6234 18.0377 19.6885C18.6479 20.9204 18.1817 22.5045 17.9209 23.8011C17.8053 24.3897 17.6896 24.9783 17.5704 25.5847C19.1896 25.5847 20.8088 25.5847 22.477 25.5847C22.5541 24.8064 22.6312 24.0281 22.7106 23.2262C23.4267 20.2933 24.7968 17.9448 26.449 15.4432C25.3695 14.3536 24.2901 13.264 23.1779 12.1413C22.1476 13.2853 21.2725 14.3913 20.5038 15.7297C20.0261 16.2834 19.6867 16.3341 18.9723 16.3866C18.432 16.136 18.432 16.136 18.0377 15.6791C17.8252 13.9699 18.8491 12.8808 19.8248 11.5997C21.4972 9.47173 23.3807 7.66232 25.5144 6.00926C25.6909 5.87185 25.8674 5.73443 26.0492 5.59284C27.087 4.85671 27.7492 4.65569 29.019 5.06587Z" fill="#B3261E"/>
<path d="M47.2212 40.7274C47.7104 41.1512 47.7104 41.1512 47.9441 41.726C47.9441 42.5179 47.7925 42.7104 47.2431 43.2738C46.6414 43.527 46.0836 43.7272 45.4616 43.9076C45.3041 43.9577 45.1465 44.0077 44.9842 44.0592C43.7602 44.4308 42.7094 44.5423 41.402 44.6889C41.402 46.3233 41.402 47.9578 41.402 49.6417C42.173 49.4861 42.9441 49.3304 43.7384 49.17C44.124 49.17 44.5095 49.17 44.9067 49.17C45.0223 48.9365 45.0223 48.9365 45.1403 48.6983C46.6318 48.8404 46.6318 48.8404 47.2285 49.229C47.5737 49.8028 47.5748 50.1614 47.4768 50.821C47.0834 51.491 46.6979 51.5523 45.953 51.7793C44.849 52.0451 43.7823 52.0724 42.6514 52.0712C42.4413 52.0722 42.2311 52.0732 42.0145 52.0742C41.5726 52.0756 41.1306 52.0757 40.6886 52.0747C40.0174 52.0739 39.3465 52.0795 38.6754 52.0854C38.2435 52.086 37.8117 52.0861 37.3798 52.0859C37.1819 52.0881 36.984 52.0902 36.78 52.0925C35.2871 52.081 33.6241 51.9319 32.5235 50.821C32.6111 49.966 32.6111 49.966 32.7571 49.17C33.5282 49.0144 34.2992 48.8587 35.0936 48.6983C35.0936 48.854 35.0936 49.0097 35.0936 49.17C35.385 49.1915 35.385 49.1915 35.6823 49.2133C35.9362 49.2331 36.1901 49.2529 36.4516 49.2732C36.7037 49.2924 36.9558 49.3115 37.2156 49.3313C37.8973 49.4059 37.8973 49.4059 38.5983 49.6417C38.5983 48.0073 38.5983 46.3729 38.5983 44.6889C38.1935 44.6305 37.7887 44.5722 37.3716 44.512C35.8707 44.2583 34.3799 43.9155 32.9908 43.2738C32.4873 42.5114 32.414 42.2711 32.5235 41.387C32.7717 40.9448 32.7717 40.9448 33.2244 40.6795C34.0076 40.7131 34.6704 40.8555 35.4176 41.0913C38.6482 42.0636 42.1248 42.0183 45.2765 40.8011C46.0684 40.5078 46.4253 40.3948 47.2212 40.7274Z" fill="#B3261E"/>
<path d="M37.0943 1.9062C37.4416 1.90518 37.4416 1.90518 37.7958 1.90414C38.2828 1.90367 38.7697 1.90495 39.2567 1.90792C39.9981 1.91171 40.7392 1.90795 41.4807 1.90343C41.9559 1.9039 42.4311 1.90481 42.9062 1.9062C43.1258 1.90476 43.3454 1.90333 43.5716 1.90186C44.9527 1.91659 45.9779 2.14357 47.2433 2.70771C47.4039 3.48896 47.4039 3.48896 47.4769 4.35866C47.2031 4.76955 47.2031 4.76955 46.776 5.0662C46.2439 5.10029 46.2439 5.10029 45.6224 5.02198C45.3971 4.99462 45.1718 4.96726 44.9397 4.93907C43.7568 4.76382 42.5796 4.5684 41.4022 4.35866C41.4022 5.99309 41.4022 7.62752 41.4022 9.31149C41.8648 9.23366 42.3274 9.15583 42.804 9.07564C43.3188 9.17422 43.3188 9.17422 43.797 9.35571C43.9744 9.42229 44.1518 9.48887 44.3346 9.55747C44.6178 9.6692 44.6178 9.6692 44.9068 9.78318C45.1174 9.8601 45.3279 9.93702 45.5448 10.0163C47.1821 10.634 47.1821 10.634 47.7106 11.4341C47.6348 12.2177 47.5686 12.5209 47.0096 13.0851C45.7228 13.1168 44.4947 12.7368 43.2713 12.3775C40.5383 11.9177 37.6065 11.9417 35.0061 12.9966C34.1695 13.317 33.6397 13.4452 32.7573 13.3209C32.3192 13.0408 32.3192 13.0408 32.0564 12.6134C31.9395 12.0385 31.9395 12.0385 32.0564 11.4341C33.3009 9.95355 35.6608 9.5397 37.4886 9.37045C37.8548 9.35099 38.2211 9.33153 38.5984 9.31149C38.5984 7.67705 38.5984 6.04262 38.5984 4.35866C37.3541 4.59013 37.3541 4.59013 36.1104 4.82437C33.6101 5.27963 33.6101 5.27963 32.7719 4.81561C32.3796 4.0934 32.597 3.4875 32.7573 2.70771C34.249 2.04266 35.4731 1.89562 37.0943 1.9062Z" fill="#B3261E"/>
<path d="M43.2714 22.2829C44.5432 23.3479 45.3467 24.6392 45.6078 26.2923C45.6931 27.9968 45.2471 29.427 44.206 30.7735C42.6355 32.2444 41.3472 32.538 39.2191 32.5202C37.7281 32.353 36.6737 31.6838 35.6423 30.6058C34.5071 29.1377 34.261 27.5917 34.4695 25.77C34.8382 24.2272 35.8653 22.879 37.1966 22.0471C39.3063 20.9892 41.2356 21.0948 43.2714 22.2829ZM37.3426 25.5406C37.0554 26.5554 37.0511 27.3996 37.5033 28.356C37.6334 28.5311 37.7635 28.7063 37.8976 28.8867C38.0349 29.091 38.0349 29.091 38.175 29.2994C38.8716 29.7843 39.6434 29.8301 40.4676 29.8301C41.4041 29.5937 42.006 29.2086 42.5705 28.415C42.8627 27.3612 42.8849 26.5369 42.5412 25.4964C42.04 24.788 41.7362 24.4932 40.9349 24.1697C39.3917 23.9966 38.3401 24.2133 37.3426 25.5406Z" fill="#B3261E"/>
<path d="M39.9849 33.751C40.7005 33.8394 40.7005 33.8394 41.1531 34.2374C41.4014 34.7828 41.4014 34.7828 41.3868 35.3872C41.1174 36.0943 40.9127 36.3457 40.2332 36.6696C39.5001 36.4758 39.1344 36.2681 38.5977 35.7262C38.6915 34.5893 38.7522 33.9098 39.9849 33.751Z" fill="#B3261E"/>
<path d="M48.6446 25.5848C49.1849 26.1744 49.1849 26.1744 49.5792 26.764C49.2872 27.6256 49.1888 27.8915 48.411 28.415C47.8122 28.3707 47.8122 28.3707 47.2427 28.1791C46.7392 27.4167 46.666 27.1764 46.7754 26.2923C47.2729 25.5258 47.7684 25.4122 48.6446 25.5848Z" fill="#B3261E"/>
<path d="M40.1163 17.3596C40.7525 17.5843 41.0451 17.694 41.4014 18.2735C41.3722 18.9958 41.3722 18.9958 41.1677 19.6886C40.4668 20.1603 40.4668 20.1603 39.7513 20.1161C39.0649 19.9244 39.0649 19.9244 38.5977 19.2169C38.6468 18.5559 38.7588 18.1475 39.1234 17.5954C39.5322 17.3301 39.5322 17.3301 40.1163 17.3596Z" fill="#B3261E"/>
<path d="M52.2806 25.5998C52.9811 25.8718 53.2302 26.0784 53.551 26.7643C53.3385 27.6655 53.1602 27.8921 52.3828 28.4152C51.7841 28.371 51.7841 28.371 51.2146 28.1794C50.7128 27.4196 50.6162 27.1748 50.7473 26.2926C51.2587 25.7191 51.513 25.5809 52.2806 25.5998Z" fill="#B3261E"/>
<path d="M31.355 25.585C32.6294 25.6922 32.6294 25.6922 33.2241 26.2925C33.1803 27.118 33.1803 27.118 32.9905 27.9435C32.2895 28.4151 32.2895 28.4151 31.7054 28.3857C31.1213 28.1793 31.1213 28.1793 30.6686 27.7666C30.4204 27.2359 30.4204 27.2359 30.581 26.6168C30.8877 26.0567 30.8877 26.0567 31.355 25.585Z" fill="#B3261E"/>
<path d="M27.3833 25.585C28.6577 25.6922 28.6577 25.6922 29.2524 26.2925C29.2086 27.118 29.2086 27.118 29.0188 27.9435C28.3179 28.4151 28.3179 28.4151 27.7338 28.3857C27.1496 28.1793 27.1496 28.1793 26.697 27.7666C26.4487 27.2359 26.4487 27.2359 26.6093 26.6168C26.916 26.0567 26.916 26.0567 27.3833 25.585Z" fill="#B3261E"/>
<path d="M40.3792 13.483C40.9341 13.7925 40.9341 13.7925 41.4014 14.2642C41.3576 14.9717 41.3576 14.9717 41.1677 15.6793C40.4668 16.151 40.4668 16.151 39.7513 16.1068C39.0649 15.9151 39.0649 15.9151 38.5977 15.2076C38.6345 14.4628 38.7427 14.1274 39.2402 13.5714C39.7659 13.3208 39.7659 13.3208 40.3792 13.483Z" fill="#B3261E"/>
<path d="M39.9857 37.7607C40.7012 37.8492 40.7012 37.8492 41.1539 38.2472C41.4681 38.9375 41.4094 39.2609 41.1685 39.9718C40.7012 40.4435 40.7012 40.4435 40.0149 40.5172C39.2993 40.4435 39.2993 40.4435 38.8466 40.1782C38.5984 39.736 38.5984 39.736 38.6422 39.0137C38.8926 38.0997 39.0436 37.8821 39.9857 37.7607Z" fill="#B3261E"/>
<path d="M31.3402 34.2378C32.0557 34.3115 32.0557 34.3115 32.5084 34.5621C32.9007 35.2843 32.6833 35.8902 32.523 36.67C31.0274 36.9833 31.0274 36.9833 30.4348 36.6552C30.0806 36.0033 30.1095 35.5138 30.1865 34.7832C30.6538 34.3115 30.6538 34.3115 31.3402 34.2378Z" fill="#B3261E"/>
<path d="M46.7759 20.1605C47.0095 20.3963 47.0095 20.3963 47.068 21.0744C47.0095 21.8114 47.0095 21.8114 46.7321 22.2537C46.1556 22.6149 45.8074 22.62 45.1404 22.519C44.7023 22.2684 44.7023 22.2684 44.4395 21.8114C44.4541 20.9712 44.4541 20.9712 44.6731 20.1605C45.423 19.4846 45.9375 19.7259 46.7759 20.1605Z" fill="#B3261E"/>
<path d="M49.5796 17.3304C49.8133 17.5663 49.8133 17.5663 49.8717 18.2443C49.8133 18.9814 49.8133 18.9814 49.5358 19.4236C48.9593 19.7848 48.6111 19.7899 47.9441 19.6889C47.506 19.4383 47.506 19.4383 47.2432 18.9814C47.2578 18.1412 47.2578 18.1412 47.4768 17.3304C48.2267 16.6545 48.7412 16.8958 49.5796 17.3304Z" fill="#B3261E"/>
<path d="M32.0126 17.0502C32.1812 17.1426 32.3499 17.2351 32.5237 17.3303C32.8353 18.8457 32.8353 18.8457 32.4945 19.4382C31.9077 19.7738 31.5529 19.7894 30.8882 19.6888C30.4647 19.4234 30.4647 19.4234 30.1872 18.9812C30.0704 18.2737 30.0704 18.2737 30.1872 17.5661C30.8567 16.9482 31.1287 16.7925 32.0126 17.0502Z" fill="#B3261E"/>
<path d="M47.0095 31.953C47.0941 33.2333 47.0941 33.2333 46.7321 33.8103C46.1556 34.1715 45.8074 34.1766 45.1404 34.0756C44.7023 33.825 44.7023 33.825 44.4395 33.3681C44.4541 32.5279 44.4541 32.5279 44.6731 31.7171C45.5003 30.9131 46.1314 31.4292 47.0095 31.953Z" fill="#B3261E"/>
<path d="M49.5796 34.5471C49.8133 34.7829 49.8133 34.7829 49.8717 35.461C49.8133 36.198 49.8133 36.198 49.5358 36.6402C48.9593 37.0015 48.6111 37.0066 47.9441 36.9056C47.506 36.655 47.506 36.655 47.2432 36.198C47.287 35.3431 47.287 35.3431 47.4768 34.5471C48.1991 34.1825 48.805 34.4049 49.5796 34.5471Z" fill="#B3261E"/>
<path d="M33.4581 31.4809C34.1971 31.3857 34.6591 31.3525 35.2981 31.761C35.656 32.343 35.661 32.6944 35.561 33.3677C35.3127 33.81 35.3127 33.81 34.86 34.0753C33.9985 34.0016 33.9985 34.0016 33.2245 33.8394C32.9324 32.2769 32.9324 32.2769 33.4581 31.4809Z" fill="#B3261E"/>
<path d="M35.3267 20.1606C35.6383 21.676 35.6383 21.676 35.2975 22.2685C34.7107 22.6041 34.3559 22.6197 33.6912 22.5191C33.2531 22.2685 33.2531 22.2685 32.9902 21.8115C33.0048 20.9713 33.0048 20.9713 33.2239 20.1606C33.9755 19.4832 34.4835 19.735 35.3267 20.1606Z" fill="#B3261E"/>
<path d="M41.168 4.12256C41.7077 4.12256 42.2474 4.12256 42.8035 4.12256C42.8035 4.20039 42.8035 4.27822 42.8035 4.35841C42.3409 4.35841 41.8782 4.35841 41.4016 4.35841C41.4016 5.99284 41.4016 7.62728 41.4016 9.31124C41.8642 9.23341 42.3268 9.15558 42.8035 9.07539C43.592 9.2965 43.592 9.2965 44.2054 9.54709C44.2054 9.62492 44.2054 9.70275 44.2054 9.78294C43.203 9.70511 42.2007 9.62728 41.168 9.54709C41.168 7.75699 41.168 5.9669 41.168 4.12256Z" fill="#B3261E"/>
<path d="M24.8135 6.48096C24.9677 6.55879 25.1219 6.63662 25.2808 6.71681C24.8018 7.38624 24.3905 7.86659 23.7037 8.32353C22.7002 9.00531 21.9085 9.84661 21.0752 10.7262C21.0752 10.0187 21.0752 10.0187 21.537 9.47513C21.7412 9.27509 21.9454 9.07504 22.1558 8.86893C22.3678 8.66098 22.5799 8.45302 22.7983 8.23877C23.4513 7.62275 24.1123 7.03981 24.8135 6.48096Z" fill="#B3261E"/>
<path d="M56.3547 7.66016C57.495 8.58986 58.4711 9.57513 59.3921 10.7262C58.6912 10.7262 58.6912 10.7262 58.0605 10.1587C57.826 9.91723 57.5933 9.67393 57.3623 9.42902C57.2429 9.30529 57.1235 9.18155 57.0005 9.05406C56.7057 8.74822 56.4132 8.44024 56.1211 8.13185C56.1982 7.97619 56.2753 7.82053 56.3547 7.66016Z" fill="#B3261E"/>
<path d="M53.084 37.8491C53.4832 38.232 53.8724 38.6258 54.2522 39.0284C54.2522 39.184 54.2522 39.3397 54.2522 39.5001C54.4835 39.5779 54.7148 39.6557 54.9531 39.7359C54.9531 39.8916 54.9531 40.0472 54.9531 40.2076C55.1845 40.2854 55.4158 40.3633 55.6541 40.4435C55.6541 40.5991 55.6541 40.7548 55.6541 40.9152C55.8854 40.993 56.1167 41.0708 56.355 41.151C56.1237 41.2288 55.8924 41.3067 55.6541 41.3869C55.2228 40.9769 54.7952 40.564 54.369 40.1486C54.2464 40.0328 54.1239 39.917 53.9976 39.7976C53.6749 39.4804 53.3778 39.1372 53.084 38.7925C53.084 38.4812 53.084 38.1699 53.084 37.8491Z" fill="#B3261E"/>
<path d="M32.5236 3.1792C32.5477 3.33 32.5718 3.48079 32.5966 3.63616C32.6496 3.79668 32.7026 3.95721 32.7573 4.1226C32.9886 4.20043 33.2199 4.27826 33.4582 4.35844C33.4582 4.5141 33.4582 4.66977 33.4582 4.83014C33.6133 4.77633 33.7684 4.72252 33.9282 4.66708C34.2377 4.56538 34.2377 4.56538 34.5534 4.46163C34.7567 4.39322 34.96 4.32482 35.1695 4.25434C35.8522 4.11047 36.2956 4.17518 36.9629 4.35844C36.9629 4.43627 36.9629 4.5141 36.9629 4.59429C33.646 5.3354 33.646 5.3354 32.7865 4.78592C32.4423 4.22628 32.4717 3.82563 32.5236 3.1792Z" fill="#B3261E"/>
<path d="M17.5701 29.3584C17.6472 29.3584 17.7243 29.3584 17.8038 29.3584C18.0778 30.8626 18.3401 32.3073 18.2711 33.8395C18.194 33.8395 18.1169 33.8395 18.0374 33.8395C18.0374 33.3725 18.0374 32.9056 18.0374 32.4244C17.8832 32.4244 17.729 32.4244 17.5701 32.4244C17.2672 31.337 17.404 30.4578 17.5701 29.3584Z" fill="#B3261E"/>
<path d="M49.1126 26.2925C49.2668 26.6038 49.421 26.9151 49.5799 27.2359C49.0688 27.8402 49.0688 27.8402 48.4116 28.4151C47.7691 28.4004 47.7691 28.4004 47.2434 28.1793C47.1663 28.0236 47.0892 27.868 47.0098 27.7076C47.2266 27.7124 47.4435 27.7173 47.6669 27.7223C48.417 27.7448 48.417 27.7448 49.1126 27.4717C49.1126 27.0826 49.1126 26.6934 49.1126 26.2925Z" fill="#B3261E"/>
<path d="M49.346 17.3303C49.0713 17.4033 49.0713 17.4033 48.7911 17.4777C48.1055 17.7564 48.1055 17.7564 47.8711 18.539C47.7916 18.8747 47.7916 18.8747 47.7105 19.2171C47.5562 19.1393 47.402 19.0615 47.2432 18.9813C47.3016 18.1853 47.3016 18.1853 47.4768 17.3303C48.1885 16.711 48.5895 16.8394 49.346 17.3303Z" fill="#B3261E"/>
<path d="M48.6446 25.5847C48.411 26.0564 48.411 26.0564 47.9437 26.2628C47.4296 26.4865 47.4296 26.4865 47.3011 27.0293C47.2819 27.1753 47.2626 27.3212 47.2427 27.4715C47.0885 27.4715 46.9343 27.4715 46.7754 27.4715C46.6912 26.4222 46.6912 26.4222 47.0529 25.8648C47.6072 25.4982 47.9952 25.5316 48.6446 25.5847Z" fill="#B3261E"/>
<path d="M31.8951 17.0503C32.0252 17.1427 32.1553 17.2351 32.2894 17.3304C32.1063 17.4033 31.9232 17.4763 31.7345 17.5515C30.8338 17.9195 30.5858 18.089 30.1866 18.9813C30.1136 18.318 30.1136 18.318 30.1866 17.5662C30.8061 17.0104 31.0882 16.7641 31.8951 17.0503Z" fill="#B3261E"/>
<path d="M39.5327 17.3301C39.9182 17.4079 40.3037 17.4857 40.7009 17.5659C40.7009 17.7994 40.7009 18.0329 40.7009 18.2735C40.1612 18.2735 39.6215 18.2735 39.0654 18.2735C39.2196 17.9622 39.3738 17.6508 39.5327 17.3301Z" fill="#B3261E"/>
<path d="M21.7756 43.981C22.2383 44.3701 22.7009 44.7593 23.1775 45.1602C23.1004 45.3159 23.0233 45.4715 22.9439 45.6319C22.4812 45.2427 22.0186 44.8536 21.542 44.4527C21.6191 44.297 21.6962 44.1413 21.7756 43.981Z" fill="#B3261E"/>
<path d="M28.551 25.8208C28.898 26.0543 28.898 26.0543 29.252 26.2925C29.1749 26.8373 29.0978 27.3821 29.0183 27.9434C28.9412 27.9434 28.8641 27.9434 28.7847 27.9434C28.7003 27.6343 28.6179 27.3247 28.5364 27.0148C28.4673 26.7562 28.4673 26.7562 28.3968 26.4924C28.3706 26.3486 28.3444 26.2048 28.3174 26.0566C28.3945 25.9788 28.4716 25.901 28.551 25.8208Z" fill="#B3261E"/>
<path d="M26.6822 19.2168C26.8364 19.2168 26.9906 19.2168 27.1495 19.2168C26.7406 20.5729 26.7406 20.5729 26.2149 21.1036C25.9812 20.396 25.9812 20.396 26.2879 19.7622C26.418 19.5822 26.5481 19.4022 26.6822 19.2168Z" fill="#B3261E"/>
<path d="M38.5977 35.9624C38.829 36.1959 39.0603 36.4294 39.2986 36.6699C39.0673 36.5921 38.836 36.5143 38.5977 36.4341C38.5977 36.2784 38.5977 36.1228 38.5977 35.9624Z" fill="#B3261E"/>
<path d="M20.6079 15.6792C20.6079 15.9127 20.6079 16.1462 20.6079 16.3867C20.4537 16.3089 20.2995 16.2311 20.1406 16.1509C20.2948 15.9952 20.449 15.8396 20.6079 15.6792Z" fill="#B3261E"/>
<path d="M53.7852 9.54736C54.0165 9.62519 54.2478 9.70302 54.4861 9.78321C54.3319 9.93887 54.1777 10.0945 54.0188 10.2549C53.9417 10.0214 53.8646 9.78793 53.7852 9.54736Z" fill="#B3261E"/>
<path d="M24.8135 36.4341C25.0448 36.5508 25.0448 36.5508 25.2808 36.6699C25.2037 36.8256 25.1266 36.9813 25.0471 37.1416C24.97 36.9081 24.8929 36.6746 24.8135 36.4341Z" fill="#B3261E"/>
<path d="M49.1126 27.9434C49.2668 28.0212 49.421 28.099 49.5798 28.1792C49.3485 28.1792 49.1172 28.1792 48.8789 28.1792C48.956 28.1014 49.0331 28.0235 49.1126 27.9434Z" fill="#B3261E"/>
<path d="M32.9905 27.9434C33.1447 28.0212 33.2989 28.099 33.4578 28.1792C33.2265 28.1792 32.9952 28.1792 32.7568 28.1792C32.8339 28.1014 32.911 28.0235 32.9905 27.9434Z" fill="#B3261E"/>
<path d="M26.9163 8.604C27.0705 8.68183 27.2247 8.75966 27.3836 8.83985C27.1522 8.83985 26.9209 8.83985 26.6826 8.83985C26.7597 8.76202 26.8368 8.68419 26.9163 8.604Z" fill="#B3261E"/>
<path d="M22.009 8.36816C22.1632 8.44599 22.3174 8.52382 22.4763 8.60401C22.245 8.60401 22.0137 8.60401 21.7754 8.60401C21.8525 8.52618 21.9296 8.44835 22.009 8.36816Z" fill="#B3261E"/>
<path d="M26.6826 44.6885C26.8368 44.8441 26.991 44.9998 27.1499 45.1602C26.9957 45.1602 26.8415 45.1602 26.6826 45.1602C26.6826 45.0045 26.6826 44.8489 26.6826 44.6885Z" fill="#B3261E"/>
<path d="M56.5889 41.1509C56.7431 41.1509 56.8973 41.1509 57.0562 41.1509C56.9791 41.3065 56.902 41.4622 56.8225 41.6226C56.7454 41.4669 56.6683 41.3113 56.5889 41.1509Z" fill="#B3261E"/>
<path d="M51.6826 40.915C51.8368 41.0707 51.991 41.2264 52.1499 41.3867C51.9957 41.3867 51.8415 41.3867 51.6826 41.3867C51.6826 41.2311 51.6826 41.0754 51.6826 40.915Z" fill="#B3261E"/>
<path d="M50.9814 40.2075C51.1357 40.3632 51.2899 40.5188 51.4487 40.6792C51.2945 40.6792 51.1403 40.6792 50.9814 40.6792C50.9814 40.5236 50.9814 40.3679 50.9814 40.2075Z" fill="#B3261E"/>
<path d="M25.9814 38.3208C26.2128 38.4375 26.2128 38.4375 26.4487 38.5566C26.2174 38.6734 26.2174 38.6734 25.9814 38.7925C25.9814 38.6368 25.9814 38.4812 25.9814 38.3208Z" fill="#B3261E"/>
<path d="M54.252 37.3774C54.4833 37.4942 54.4833 37.4942 54.7192 37.6133C54.4879 37.73 54.4879 37.73 54.252 37.8491C54.252 37.6935 54.252 37.5378 54.252 37.3774Z" fill="#B3261E"/>
<path d="M25.2803 37.3774C25.4345 37.3774 25.5887 37.3774 25.7476 37.3774C25.6705 37.5331 25.5934 37.6888 25.5139 37.8491C25.4368 37.6935 25.3597 37.5378 25.2803 37.3774Z" fill="#B3261E"/>
<path d="M46.7754 27.9434C46.9296 28.099 47.0838 28.2547 47.2427 28.4151C47.0885 28.4151 46.9343 28.4151 46.7754 28.4151C46.7754 28.2594 46.7754 28.1037 46.7754 27.9434Z" fill="#B3261E"/>
<path d="M29.0188 27.9434C29.0959 28.099 29.173 28.2547 29.2524 28.4151C29.0982 28.3372 28.944 28.2594 28.7852 28.1792C28.8623 28.1014 28.9394 28.0235 29.0188 27.9434Z" fill="#B3261E"/>
<path d="M43.7383 22.519C43.8925 22.519 44.0467 22.519 44.2056 22.519C44.1285 22.6747 44.0514 22.8304 43.9719 22.9907C43.8948 22.8351 43.8177 22.6794 43.7383 22.519Z" fill="#B3261E"/>
<path d="M36.0283 22.2832C36.2596 22.3999 36.2596 22.3999 36.4956 22.5191C36.2643 22.6358 36.2643 22.6358 36.0283 22.7549C36.0283 22.5992 36.0283 22.4436 36.0283 22.2832Z" fill="#B3261E"/>
<path d="M59.1592 15.6792C59.3134 15.8349 59.4676 15.9905 59.6265 16.1509C59.4723 16.1509 59.3181 16.1509 59.1592 16.1509C59.1592 15.9952 59.1592 15.8396 59.1592 15.6792Z" fill="#B3261E"/>
<path d="M21.5422 14.2642C21.6193 14.4198 21.6964 14.5755 21.7759 14.7359C21.6217 14.658 21.4675 14.5802 21.3086 14.5C21.3857 14.4222 21.4628 14.3443 21.5422 14.2642Z" fill="#B3261E"/>
<path d="M50.2803 13.5566C50.5116 13.6734 50.5116 13.6734 50.7476 13.7925C50.5163 13.9092 50.5163 13.9092 50.2803 14.0283C50.2803 13.8727 50.2803 13.717 50.2803 13.5566Z" fill="#B3261E"/>
<path d="M50.9814 12.8491C51.2128 12.9659 51.2128 12.9659 51.4487 13.085C51.2174 13.2017 51.2174 13.2017 50.9814 13.3208C50.9814 13.1652 50.9814 13.0095 50.9814 12.8491Z" fill="#B3261E"/>
<path d="M51.6826 12.1416C51.9139 12.2583 51.9139 12.2583 52.1499 12.3775C51.9186 12.4942 51.9186 12.4942 51.6826 12.6133C51.6826 12.4576 51.6826 12.302 51.6826 12.1416Z" fill="#B3261E"/>
<path d="M52.3828 11.4341C52.6141 11.5508 52.6141 11.5508 52.8501 11.6699C52.6188 11.7867 52.6188 11.7867 52.3828 11.9058C52.3828 11.7501 52.3828 11.5945 52.3828 11.4341Z" fill="#B3261E"/>
<path d="M53.084 10.7266C53.3153 10.8433 53.3153 10.8433 53.5513 10.9624C53.32 11.0792 53.32 11.0792 53.084 11.1983C53.084 11.0426 53.084 10.8869 53.084 10.7266Z" fill="#B3261E"/>
<path d="M57.5234 8.13184C57.6776 8.2875 57.8318 8.44316 57.9907 8.60353C57.8365 8.60353 57.6823 8.60353 57.5234 8.60353C57.5234 8.44787 57.5234 8.29221 57.5234 8.13184Z" fill="#B3261E"/>
<path d="M50.5137 6.95264C50.6679 7.1083 50.8221 7.26396 50.981 7.42433C50.8268 7.42433 50.6726 7.42433 50.5137 7.42433C50.5137 7.26867 50.5137 7.11301 50.5137 6.95264Z" fill="#B3261E"/>
<path d="M47.0098 51.2925C47.4771 51.5283 47.4771 51.5283 47.4771 51.5283L47.0098 51.2925Z" fill="#B3261E"/>
<path d="M32.5234 51.2925C32.9907 51.5283 32.9907 51.5283 32.9907 51.5283L32.5234 51.2925Z" fill="#B3261E"/>
<path d="M32.7568 48.6982C33.2241 48.9341 33.2241 48.9341 33.2241 48.9341L32.7568 48.6982Z" fill="#B3261E"/>
<path d="M53.5518 48.4624C54.019 48.6983 54.019 48.6983 54.019 48.6983L53.5518 48.4624Z" fill="#B3261E"/>
<path d="M54.9531 47.519C55.4204 47.7549 55.4204 47.7549 55.4204 47.7549L54.9531 47.519Z" fill="#B3261E"/>
<path d="M24.5791 47.519C25.0464 47.7549 25.0464 47.7549 25.0464 47.7549L24.5791 47.519Z" fill="#B3261E"/>
<path d="M23.6445 46.8115C24.1118 47.0474 24.1118 47.0474 24.1118 47.0474L23.6445 46.8115Z" fill="#B3261E"/>
<path d="M57.7568 45.1602C58.2241 45.396 58.2241 45.396 58.2241 45.396L57.7568 45.1602Z" fill="#B3261E"/>
<path d="M32.5234 40.6792C32.9907 40.915 32.9907 40.915 32.9907 40.915L32.5234 40.6792Z" fill="#B3261E"/>
<path d="M40.7012 40.4434C41.1685 40.6792 41.1685 40.6792 41.1685 40.6792L40.7012 40.4434Z" fill="#B3261E"/>
<path d="M38.832 40.4434C39.2993 40.6792 39.2993 40.6792 39.2993 40.6792L38.832 40.4434Z" fill="#B3261E"/>
<path d="M40.7012 36.4341C41.1685 36.6699 41.1685 36.6699 41.1685 36.6699L40.7012 36.4341Z" fill="#B3261E"/>
<path d="M43.0371 31.7168C43.5044 31.9526 43.5044 31.9526 43.5044 31.9526L43.0371 31.7168Z" fill="#B3261E"/>
<path d="M36.4951 31.7168C36.9624 31.9526 36.9624 31.9526 36.9624 31.9526L36.4951 31.7168Z" fill="#B3261E"/>
<path d="M40.9346 29.1226C41.4019 29.3584 41.4019 29.3584 41.4019 29.3584L40.9346 29.1226Z" fill="#B3261E"/>
<path d="M38.5977 29.1226C39.0649 29.3584 39.0649 29.3584 39.0649 29.3584L38.5977 29.1226Z" fill="#B3261E"/>
<path d="M52.8506 28.1792C53.3179 28.415 53.3179 28.415 53.3179 28.415L52.8506 28.1792Z" fill="#B3261E"/>
<path d="M30.6543 28.1792C31.1216 28.415 31.1216 28.415 31.1216 28.415L30.6543 28.1792Z" fill="#B3261E"/>
<path d="M26.6826 28.1792C27.1499 28.415 27.1499 28.415 27.1499 28.415L26.6826 28.1792Z" fill="#B3261E"/>
<path d="M40.9346 24.6416C41.4019 24.8775 41.4019 24.8775 41.4019 24.8775L40.9346 24.6416Z" fill="#B3261E"/>
<path d="M38.5977 24.6416C39.0649 24.8775 39.0649 24.8775 39.0649 24.8775L38.5977 24.6416Z" fill="#B3261E"/>
<path d="M42.8037 21.8115C43.271 22.0474 43.271 22.0474 43.271 22.0474L42.8037 21.8115Z" fill="#B3261E"/>
<path d="M36.7285 21.8115C37.1958 22.0474 37.1958 22.0474 37.1958 22.0474L36.7285 21.8115Z" fill="#B3261E"/>
<path d="M17.5703 19.2168C18.0376 19.4526 18.0376 19.4526 18.0376 19.4526L17.5703 19.2168Z" fill="#B3261E"/>
<path d="M57.7568 13.7925C58.2241 14.0283 58.2241 14.0283 58.2241 14.0283L57.7568 13.7925Z" fill="#B3261E"/>
<path d="M38.832 13.3208C39.2993 13.5566 39.2993 13.5566 39.2993 13.5566L38.832 13.3208Z" fill="#B3261E"/>
<path d="M47.0098 13.085C47.4771 13.3208 47.4771 13.3208 47.4771 13.3208L47.0098 13.085Z" fill="#B3261E"/>
<path d="M32.0557 13.085C32.523 13.3208 32.523 13.3208 32.523 13.3208L32.0557 13.085Z" fill="#B3261E"/>
<path d="M25.748 9.54736C26.2153 9.78321 26.2153 9.78321 26.2153 9.78321L25.748 9.54736Z" fill="#B3261E"/>
<path d="M52.6172 8.604C53.0845 8.83985 53.0845 8.83985 53.0845 8.83985L52.6172 8.604Z" fill="#B3261E"/>
<path d="M57.0557 7.896C57.523 8.13185 57.523 8.13185 57.523 8.13185L57.0557 7.896Z" fill="#B3261E"/>
<path d="M50.5137 4.83008C50.981 5.06593 50.981 5.06593 50.981 5.06593L50.5137 4.83008Z" fill="#B3261E"/>
</g>
<path d="M91.834 27.8418C91.834 29.7376 91.401 31.4375 90.5352 32.9414C89.6693 34.4362 88.5755 35.5846 87.2539 36.3867C86.2604 36.9883 85.1712 37.4076 83.9863 37.6445C82.8014 37.8815 81.3978 38 79.7754 38H72.5977V17.6426H79.9805C81.6393 17.6426 83.0703 17.7839 84.2734 18.0664C85.4766 18.3398 86.4883 18.7318 87.3086 19.2422C88.7122 20.099 89.8151 21.2565 90.6172 22.7148C91.4284 24.1641 91.834 25.873 91.834 27.8418ZM86.4062 27.8008C86.4062 26.4609 86.1602 25.3171 85.668 24.3691C85.1849 23.4121 84.4147 22.6647 83.3574 22.127C82.8197 21.8626 82.2682 21.6849 81.7031 21.5938C81.1471 21.4935 80.304 21.4434 79.1738 21.4434H77.8477V34.1855H79.1738C80.4225 34.1855 81.3385 34.1309 81.9219 34.0215C82.5052 33.903 83.0749 33.6934 83.6309 33.3926C84.5879 32.8457 85.2897 32.1165 85.7363 31.2051C86.1829 30.2845 86.4062 29.1497 86.4062 27.8008ZM110.564 38H95.8398V17.6426H110.564V21.5801H101.062V25.0938H109.881V29.0312H101.062V34.0625H110.564V38ZM136.322 38H131.1V24.3691L127.326 33.2148H123.703L119.93 24.3691V38H114.98V17.6426H121.078L125.658 27.8555L130.225 17.6426H136.322V38ZM152.537 38H140.615V34.3906H143.951V21.252H140.615V17.6426H152.537V21.252H149.201V34.3906H152.537V38ZM173.113 31.6016C173.113 33.6068 172.261 35.2383 170.557 36.4961C168.861 37.7448 166.555 38.3691 163.639 38.3691C161.952 38.3691 160.48 38.2233 159.223 37.9316C157.974 37.6309 156.803 37.2526 155.709 36.7969V31.916H156.283C157.368 32.7819 158.58 33.4473 159.92 33.9121C161.269 34.377 162.563 34.6094 163.803 34.6094C164.122 34.6094 164.541 34.582 165.061 34.5273C165.58 34.4727 166.004 34.3815 166.332 34.2539C166.733 34.0898 167.061 33.8848 167.316 33.6387C167.581 33.3926 167.713 33.028 167.713 32.5449C167.713 32.0983 167.521 31.7155 167.139 31.3965C166.765 31.0684 166.214 30.8177 165.484 30.6445C164.719 30.4622 163.908 30.2936 163.051 30.1387C162.203 29.9746 161.406 29.7695 160.658 29.5234C158.945 28.9674 157.71 28.2155 156.953 27.2676C156.206 26.3105 155.832 25.1257 155.832 23.7129C155.832 21.8171 156.68 20.2721 158.375 19.0781C160.079 17.875 162.267 17.2734 164.938 17.2734C166.277 17.2734 167.599 17.4056 168.902 17.6699C170.215 17.9251 171.35 18.2487 172.307 18.6406V23.3301H171.746C170.926 22.6738 169.919 22.127 168.725 21.6895C167.54 21.2428 166.327 21.0195 165.088 21.0195C164.65 21.0195 164.213 21.0514 163.775 21.1152C163.347 21.1699 162.932 21.2793 162.531 21.4434C162.176 21.5801 161.87 21.7897 161.615 22.0723C161.36 22.3457 161.232 22.6602 161.232 23.0156C161.232 23.5534 161.438 23.9681 161.848 24.2598C162.258 24.5423 163.033 24.8021 164.172 25.0391C164.919 25.194 165.635 25.3444 166.318 25.4902C167.011 25.6361 167.754 25.8366 168.547 26.0918C170.105 26.6022 171.254 27.2995 171.992 28.1836C172.74 29.0586 173.113 30.1979 173.113 31.6016Z" fill="#B3261E"/>
<defs>
<clipPath id="clip0_1133_10675">
<rect width="50" height="50" fill="white" transform="translate(15 2)"/>
</clipPath>
</defs>
</svg>
