<svg width="45" height="46" viewBox="0 0 45 46" fill="none" xmlns="http://www.w3.org/2000/svg">
<g id="Frame">
<path id="Vector" d="M25.3125 41.75C21.9375 41.75 19.0625 40.5625 16.6875 38.1875C14.3125 35.8125 13.125 32.9375 13.125 29.5625V28.4844C10.4375 28.0469 8.20312 26.7891 6.42188 24.7109C4.64062 22.6328 3.75 20.1875 3.75 17.375V6.125H9.375V4.25H13.125V11.75H9.375V9.875H7.5V17.375C7.5 19.4375 8.23438 21.2031 9.70312 22.6719C11.1719 24.1406 12.9375 24.875 15 24.875C17.0625 24.875 18.8281 24.1406 20.2969 22.6719C21.7656 21.2031 22.5 19.4375 22.5 17.375V9.875H20.625V11.75H16.875V4.25H20.625V6.125H26.25V17.375C26.25 20.1875 25.3594 22.6328 23.5781 24.7109C21.7969 26.7891 19.5625 28.0469 16.875 28.4844V29.5625C16.875 31.9062 17.6953 33.8984 19.3359 35.5391C20.9766 37.1797 22.9688 38 25.3125 38C27.6562 38 29.6484 37.1797 31.2891 35.5391C32.9297 33.8984 33.75 31.9062 33.75 29.5625V26.4219C32.6562 26.0469 31.7578 25.375 31.0547 24.4062C30.3516 23.4375 30 22.3438 30 21.125C30 19.5625 30.5469 18.2344 31.6406 17.1406C32.7344 16.0469 34.0625 15.5 35.625 15.5C37.1875 15.5 38.5156 16.0469 39.6094 17.1406C40.7031 18.2344 41.25 19.5625 41.25 21.125C41.25 22.3438 40.8984 23.4375 40.1953 24.4062C39.4922 25.375 38.5938 26.0469 37.5 26.4219V29.5625C37.5 32.9375 36.3125 35.8125 33.9375 38.1875C31.5625 40.5625 28.6875 41.75 25.3125 41.75ZM35.625 23C36.1562 23 36.6016 22.8203 36.9609 22.4609C37.3203 22.1016 37.5 21.6562 37.5 21.125C37.5 20.5938 37.3203 20.1484 36.9609 19.7891C36.6016 19.4297 36.1562 19.25 35.625 19.25C35.0938 19.25 34.6484 19.4297 34.2891 19.7891C33.9297 20.1484 33.75 20.5938 33.75 21.125C33.75 21.6562 33.9297 22.1016 34.2891 22.4609C34.6484 22.8203 35.0938 23 35.625 23Z" fill="#0065B0"/>
</g>
</svg>
