<?xml version="1.0" encoding="UTF-8" standalone="no"?>
<!-- Created with Inkscape (http://www.inkscape.org/) -->

<svg
   width="190.741"
   height="190.741"
   viewBox="0 0 50.466889 50.466889"
   version="1.1"
   id="svg5"
   xml:space="preserve"
   sodipodi:docname="erregernachweis_mikroskop.svg"
   inkscape:version="1.3.2 (091e20e, 2023-11-25, custom)"
   xmlns:inkscape="http://www.inkscape.org/namespaces/inkscape"
   xmlns:sodipodi="http://sodipodi.sourceforge.net/DTD/sodipodi-0.dtd"
   xmlns="http://www.w3.org/2000/svg"
   xmlns:svg="http://www.w3.org/2000/svg"><sodipodi:namedview
     id="namedview1"
     pagecolor="#ffffff"
     bordercolor="#000000"
     borderopacity="0.25"
     inkscape:showpageshadow="2"
     inkscape:pageopacity="0.0"
     inkscape:pagecheckerboard="0"
     inkscape:deskcolor="#d1d1d1"
     inkscape:document-units="mm"
     inkscape:zoom="4.7184378"
     inkscape:cx="81.70077"
     inkscape:cy="95.370548"
     inkscape:window-width="1920"
     inkscape:window-height="1138"
     inkscape:window-x="-6"
     inkscape:window-y="33"
     inkscape:window-maximized="1"
     inkscape:current-layer="svg5" /><defs
     id="defs2" /><g
     id="layer1"
     transform="translate(3.4197045,-0.00204736)"><g
       style="fill:#005eb8;fill-opacity:1"
       id="g18"
       transform="matrix(2.4031776,0,0,2.4031776,0.1851415,-1.1993588)"><path
         d="m 16.0457,17 c 0.448,-1.0754 0.5681,-2.2592 0.3451,-3.4026 C 16.1679,12.454 15.6119,11.402 14.7927,10.5737 15.0181,10.0058 15.0609,9.3818 14.9152,8.78846 14.7694,8.19512 14.4423,7.66197 13.9794,7.2632 L 16.0613,5.18128 C 16.3422,4.89972 16.5,4.51826 16.5,4.12055 16.5,3.72285 16.3422,3.34138 16.0613,3.05983 L 13.9402,0.938677 c -0.2815,-0.280959 -0.663,-0.438753 -1.0608,-0.438753 -0.3977,0 -0.7792,0.157794 -1.0607,0.438753 L 1.93942,10.818 c -0.28084,0.2815 -0.43856,0.663 -0.43856,1.0607 0,0.3977 0.15772,0.7792 0.43856,1.0607 l 2.12115,2.1212 c 0.28155,0.2809 0.66302,0.4386 1.06073,0.4386 0.39771,0 0.77918,-0.1577 1.06072,-0.4386 L 9.7632,11.479 c 0.5078,0.5876 1.2268,0.9512 2.001,1.012 0.7743,0.0607 1.5412,-0.1863 2.1344,-0.6875 0.6166,0.7054 0.9952,1.5871 1.0822,2.5199 0.0869,0.9329 -0.1222,1.8694 -0.5977,2.6766 H 9 v 3 H 0 v 1.5 H 18 V 17 Z M 5.12108,14 3,11.8786 4.40903,10.4698 6.53025,12.5908 Z M 9,9.5 c 0.0011,0.18949 0.02024,0.37844 0.05715,0.5643 l -1.46632,1.466 -2.12131,-2.12112 7.40998,-7.41 2.1212,2.12115 -2.4366,2.43682 C 12.1302,6.47091 11.6825,6.4823 11.2534,6.59049 10.8244,6.69868 10.4248,6.90096 10.0836,7.18267 9.74244,7.46438 9.4682,7.81847 9.28078,8.21927 9.09335,8.62007 8.99744,9.05755 9,9.5 Z M 12,11 C 11.7033,11 11.4133,10.912 11.1666,10.7472 10.92,10.5824 10.7277,10.3481 10.6142,10.074 10.5006,9.79994 10.4709,9.49834 10.5288,9.20737 10.5867,8.9164 10.7296,8.64912 10.9393,8.43934 11.1491,8.22956 11.4164,8.0867 11.7074,8.02882 11.9983,7.97095 12.2999,8.00065 12.574,8.11418 12.8481,8.22771 13.0824,8.41997 13.2472,8.66665 13.412,8.91332 13.5,9.20333 13.5,9.5 13.4995,9.89769 13.3414,10.279 13.0602,10.5602 12.779,10.8414 12.3977,10.9995 12,11 Z m 4.5,9 h -6 v -1.5 h 6 z"
         fill="#525252"
         id="path9"
         style="fill:#005eb8;fill-opacity:1" /></g></g></svg>
