<svg width="45" height="45" viewBox="0 0 45 45" fill="none" xmlns="http://www.w3.org/2000/svg">
<path d="M1.68411 9.1842H3.74989C8.11739 9.1842 11.6486 10.1887 14.3436 12.1978C17.0386 14.2065 19.7574 16.8247 22.4999 20.0522C25.2424 16.8247 27.9611 14.2065 30.6561 12.1978C33.3511 10.1887 36.8824 9.1842 41.2499 9.1842H43.3157V12.3783H41.2499C40.9658 12.3783 40.7016 12.3861 40.4572 12.4017C40.2125 12.4173 39.9638 12.437 39.711 12.4608V32.5392C39.9638 32.563 40.2125 32.5826 40.4572 32.5983C40.7016 32.6139 40.9658 32.6217 41.2499 32.6217H43.3157V35.8158H41.2499C36.8824 35.8158 33.3511 34.8112 30.6561 32.8022C27.9611 30.7934 25.2424 28.1753 22.4999 24.9478C19.7574 28.1753 17.0386 30.7934 14.3436 32.8022C11.6486 34.8112 8.11739 35.8158 3.74989 35.8158H1.68411V32.6217H3.74989C4.03395 32.6217 4.29817 32.6139 4.54254 32.5983C4.78723 32.5826 5.03598 32.563 5.2888 32.5392V12.4608C5.03598 12.437 4.78723 12.4173 4.54254 12.4017C4.29817 12.3861 4.03395 12.3783 3.74989 12.3783H1.68411V9.1842ZM32.3343 14.955V30.0562C32.9933 30.5037 33.6815 30.8923 34.3986 31.222C35.1155 31.5514 35.8779 31.8261 36.6857 32.0461V12.9539C35.8704 13.1739 35.1061 13.4486 34.393 13.778C33.6796 14.1076 32.9933 14.5 32.3343 14.955ZM24.5858 22.5C25.3908 23.4612 26.1743 24.3794 26.9361 25.2544C27.698 26.1294 28.4852 26.9381 29.2977 27.6806V17.3194C28.4852 18.0619 27.698 18.8628 26.9361 19.7222C26.1743 20.5815 25.3908 21.5075 24.5858 22.5ZM15.7021 17.3194V27.6806C16.5146 26.9381 17.3018 26.1294 18.0636 25.2544C18.8255 24.3794 19.6127 23.4612 20.4252 22.5C19.6127 21.5387 18.8255 20.6206 18.0636 19.7456C17.3018 18.8706 16.5146 18.0619 15.7021 17.3194ZM8.32536 12.9539V32.0461C9.13317 31.8261 9.89364 31.5514 10.6068 31.222C11.3202 30.8923 12.01 30.5037 12.6763 30.0562V14.955C12.01 14.5 11.3183 14.1076 10.6011 13.778C9.88426 13.4486 9.12567 13.1739 8.32536 12.9539Z" fill="#225494"/>
</svg>
