<svg width="469" height="469" viewBox="0 0 469 469" fill="none" xmlns="http://www.w3.org/2000/svg">
<path d="M133.141 187.637C207.552 145.119 303.342 243.924 348.507 288.882C360.46 298.815 413.393 358.744 431.251 367.259C443.62 371.309 469 365.572 469 365.572C401.788 464.242 267.699 163.147 133.141 187.637Z" fill="#0065B0"/>
<path d="M125.856 258.245H101.619V217.896L125.856 188.433V258.245Z" fill="#0065B0"/>
<path d="M247.043 266.314H271.28L265.763 295.11L247.043 314.733V266.314Z" fill="#0065B0"/>
<path d="M174.331 258.245H150.094V177.548H174.331V258.245Z" fill="#0065B0"/>
<path d="M222.806 258.245H198.568L198.09 187.705C198.09 187.705 205.685 190.139 211.304 193.119C216.926 196.102 222.806 200.319 222.806 200.319V258.245Z" fill="#0065B0"/>
<path d="M247.043 216.206C254.915 221.47 266.568 230.307 271.28 234.036V258.245H247.043V216.206Z" fill="#0065B0"/>
<path d="M0 337.793C41.3739 321.511 77.9659 277.561 108.868 235.942C126.261 215.102 131.268 203.86 145.334 195.152C177.63 175.156 189.921 183.676 217.174 187.032C77.3088 126.884 93.6304 285.412 0 337.793Z" fill="#0065B0"/>
<path d="M198.568 266.314H222.806V322.802L198.568 338.942V266.314Z" fill="#0065B0"/>
<path d="M150.094 266.314H174.331V347.011L163.736 350.119L150.094 347.011V266.314Z" fill="#0065B0"/>
<path d="M101.619 266.314H125.856V338.942L101.619 322.802V266.314Z" fill="#0065B0"/>
<path d="M200.989 331.532C291.506 287.657 285.473 157.493 384.949 106.857C389.298 104.689 396.232 101.45 396.232 101.45C396.232 101.45 388.458 110.233 385.47 113.498C344.015 158.14 314.407 223.927 285.321 280.635C273.661 303.985 264.649 318.409 244.745 335.441C233.501 346.026 220.207 351.749 204.649 354.989C190.021 358.121 175.283 359.604 160.081 358.743C88.042 353.7 37.141 286.864 7.00143 229.288C5.64683 226.669 3.97986 222.495 3.52832 220.173C38.8681 254.06 83.8139 316.965 137.95 332.329C158.349 337.456 180.899 340.286 200.818 331.605L200.989 331.532Z" fill="#0065B0"/>
<path d="M303.597 266.314V250.175H327.834V290.523L303.597 266.314Z" fill="#0065B0"/>
<path d="M370.694 331.775C370.694 331.775 355.913 317.068 352.717 314.049C349.52 311.03 340.811 299.903 340.811 299.903V266.387L370.694 266.627V331.775Z" fill="#0065B0"/>
<path d="M461.424 109.852H431.54V83.5H461.424V109.852Z" fill="#0065B0"/>
<path d="M416.073 292.859H386.189V266.507H416.073V292.859Z" fill="#0065B0"/>
<path d="M461.424 292.859H431.54V266.507H461.424V292.859Z" fill="#0065B0"/>
<path d="M416.073 369.008C416.073 369.008 404.795 361.685 397.821 355.458C390.846 349.23 386.19 343.309 386.19 343.309V297.008H416.073V369.008Z" fill="#0065B0"/>
<path d="M461.424 323.361H431.54V297.009H461.424V323.361Z" fill="#0065B0"/>
<path d="M461.366 370.014C461.366 370.014 453.308 375.162 446.644 377.135C439.979 379.11 431.482 376.361 431.482 376.361V327.509H461.366V370.014Z" fill="#0065B0"/>
<path d="M461.424 140.354H431.54V114.001H461.424V140.354Z" fill="#0065B0"/>
<path d="M416.102 170.855H386.218V144.502H416.102V170.855Z" fill="#0065B0"/>
<path d="M461.452 170.855H431.569V144.502H461.452V170.855Z" fill="#0065B0"/>
<path d="M416.102 201.356H386.218V175.004H416.102V201.356Z" fill="#0065B0"/>
<path d="M461.452 201.356H431.569V175.004H461.452V201.356Z" fill="#0065B0"/>
<path d="M416.044 231.857H386.16V205.505H416.044V231.857Z" fill="#0065B0"/>
<path d="M461.395 231.857H431.511V205.505H461.395V231.857Z" fill="#0065B0"/>
<path d="M370.694 262.359H340.811V236.007H370.694V262.359Z" fill="#0065B0"/>
<path d="M416.044 262.359H386.16V236.007H416.044V262.359Z" fill="#0065B0"/>
<path d="M461.395 262.359H431.511V236.007H461.395V262.359Z" fill="#0065B0"/>
</svg>
