<?xml version="1.0" encoding="UTF-8" standalone="no"?>
<svg
   width="469"
   height="469"
   viewBox="0 0 469 469"
   fill="none"
   version="1.1"
   id="svg29"
   sodipodi:docname="IGS.svg"
   inkscape:version="1.3.2 (091e20e, 2023-11-25, custom)"
   xmlns:inkscape="http://www.inkscape.org/namespaces/inkscape"
   xmlns:sodipodi="http://sodipodi.sourceforge.net/DTD/sodipodi-0.dtd"
   xmlns="http://www.w3.org/2000/svg"
   xmlns:svg="http://www.w3.org/2000/svg">
  <defs
     id="defs29" />
  <sodipodi:namedview
     id="namedview29"
     pagecolor="#ffffff"
     bordercolor="#000000"
     borderopacity="0.25"
     inkscape:showpageshadow="2"
     inkscape:pageopacity="0.0"
     inkscape:pagecheckerboard="0"
     inkscape:deskcolor="#d1d1d1"
     inkscape:zoom="1.7323362"
     inkscape:cx="195.40087"
     inkscape:cy="254.56952"
     inkscape:window-width="1920"
     inkscape:window-height="1138"
     inkscape:window-x="-6"
     inkscape:window-y="33"
     inkscape:window-maximized="1"
     inkscape:current-layer="svg29" />
  <g
     id="g29"
     transform="translate(0,83.500085)">
    <path
       d="m 133.141,104.137 c 74.411,-42.518 170.201,56.287 215.366,101.245 11.953,9.933 64.886,69.862 82.744,78.377 C 443.62,287.809 469,282.072 469,282.072 401.788,380.742 267.699,79.6467 133.141,104.137 Z"
       fill="#0065b0"
       id="path1" />
    <path
       d="m 125.856,174.745 h -24.237 v -40.349 l 24.237,-29.463 z"
       fill="#929a9e"
       id="path2" />
    <path
       d="m 247.043,182.814 h 24.237 l -5.517,28.796 -18.72,19.623 z"
       fill="#929a9e"
       id="path3" />
    <path
       d="M 174.331,174.745 H 150.094 V 94.0479 h 24.237 z"
       fill="#929a9e"
       id="path4" />
    <path
       d="m 222.806,174.745 h -24.238 l -0.478,-70.54 c 0,0 7.595,2.434 13.214,5.414 5.622,2.983 11.502,7.2 11.502,7.2 z"
       fill="#929a9e"
       id="path5" />
    <path
       d="m 247.043,132.706 c 7.872,5.264 19.525,14.101 24.237,17.83 v 24.209 h -24.237 z"
       fill="#929a9e"
       id="path6" />
    <path
       d="m 0,254.293 c 41.3739,-16.282 77.9659,-60.232 108.868,-101.851 17.393,-20.84 22.4,-32.082 36.466,-40.79 32.296,-19.9953 44.587,-11.476 71.84,-8.12 C 77.3088,43.3838 93.6304,201.912 0,254.293 Z"
       fill="#0065b0"
       id="path7" />
    <path
       d="m 198.568,182.814 h 24.238 v 56.488 l -24.238,16.14 z"
       fill="#929a9e"
       id="path8" />
    <path
       d="m 150.094,182.814 h 24.237 v 80.697 l -10.595,3.108 -13.642,-3.108 z"
       fill="#929a9e"
       id="path9" />
    <path
       d="m 101.619,182.814 h 24.237 v 72.628 l -24.237,-16.14 z"
       fill="#929a9e"
       id="path10" />
    <path
       d="m 200.989,248.032 c 90.517,-43.875 84.484,-174.0391 183.96,-224.6747 4.349,-2.168 11.283,-5.4076 11.283,-5.4076 0,0 -7.774,8.7834 -10.762,12.0481 -41.455,44.6425 -71.063,110.4292 -100.149,167.1372 -11.66,23.35 -20.672,37.774 -40.576,54.806 -11.244,10.585 -24.538,16.308 -40.096,19.548 -14.628,3.132 -29.366,4.615 -44.568,3.754 C 88.0416,270.2 37.1406,203.364 7.00106,145.788 5.64646,143.169 3.97949,138.995 3.52795,136.673 38.8677,170.56 83.8135,233.465 137.95,248.829 c 20.399,5.127 42.949,7.957 62.868,-0.724 z"
       fill="#0065b0"
       id="path11" />
    <path
       d="m 303.597,182.814 v -16.139 h 24.237 v 40.348 z"
       fill="#929a9e"
       id="path12" />
    <path
       d="m 370.694,248.275 c 0,0 -14.781,-14.707 -17.977,-17.726 -3.197,-3.019 -11.906,-14.146 -11.906,-14.146 v -33.516 l 29.883,0.24 z"
       fill="#929a9e"
       id="path13" />
    <path
       d="M 461.424,26.3521 H 431.54 V -1.93373e-5 h 29.884 z"
       fill="#929a9e"
       id="path14" />
    <path
       d="m 416.073,209.359 h -29.884 v -26.352 h 29.884 z"
       fill="#929a9e"
       id="path15" />
    <path
       d="M 461.424,209.359 H 431.54 v -26.352 h 29.884 z"
       fill="#929a9e"
       id="path16" />
    <path
       d="m 416.073,285.508 c 0,0 -11.278,-7.323 -18.252,-13.55 -6.975,-6.228 -11.631,-12.149 -11.631,-12.149 v -46.301 h 29.883 z"
       fill="#929a9e"
       id="path17" />
    <path
       d="M 461.424,239.861 H 431.54 v -26.352 h 29.884 z"
       fill="#929a9e"
       id="path18" />
    <path
       d="m 461.366,286.514 c 0,0 -8.058,5.148 -14.722,7.121 -6.665,1.975 -15.162,-0.774 -15.162,-0.774 v -48.852 h 29.884 z"
       fill="#929a9e"
       id="path19" />
    <path
       d="M 461.424,56.8538 H 431.54 V 30.5017 h 29.884 z"
       fill="#929a9e"
       id="path20" />
    <path
       d="M 416.102,87.3545 H 386.218 V 61.0024 h 29.884 z"
       fill="#929a9e"
       id="path21" />
    <path
       d="M 461.452,87.3545 H 431.569 V 61.0024 h 29.883 z"
       fill="#929a9e"
       id="path22" />
    <path
       d="M 416.102,117.856 H 386.218 V 91.5041 h 29.884 z"
       fill="#929a9e"
       id="path23" />
    <path
       d="M 461.452,117.856 H 431.569 V 91.5041 h 29.883 z"
       fill="#929a9e"
       id="path24" />
    <path
       d="M 416.044,148.357 H 386.16 v -26.352 h 29.884 z"
       fill="#929a9e"
       id="path25" />
    <path
       d="m 461.395,148.357 h -29.884 v -26.352 h 29.884 z"
       fill="#929a9e"
       id="path26" />
    <path
       d="m 370.694,178.859 h -29.883 v -26.352 h 29.883 z"
       fill="#929a9e"
       id="path27" />
    <path
       d="M 416.044,178.859 H 386.16 v -26.352 h 29.884 z"
       fill="#929a9e"
       id="path28" />
    <path
       d="m 461.395,178.859 h -29.884 v -26.352 h 29.884 z"
       fill="#929a9e"
       id="path29" />
  </g>
</svg>
