<?xml version="1.0" encoding="UTF-8" standalone="no"?>
<!-- Created with Inkscape (http://www.inkscape.org/) -->

<svg
   version="1.1"
   id="svg1"
   width="242.66701"
   height="242.66701"
   viewBox="0 0 242.66701 242.66701"
   sodipodi:docname="Krankenhaus-Bett.svg"
   inkscape:version="1.3.2 (091e20e, 2023-11-25, custom)"
   xmlns:inkscape="http://www.inkscape.org/namespaces/inkscape"
   xmlns:sodipodi="http://sodipodi.sourceforge.net/DTD/sodipodi-0.dtd"
   xmlns="http://www.w3.org/2000/svg"
   xmlns:svg="http://www.w3.org/2000/svg">
  <defs
     id="defs1" />
  <sodipodi:namedview
     id="namedview1"
     pagecolor="#ffffff"
     bordercolor="#000000"
     borderopacity="0"
     inkscape:showpageshadow="2"
     inkscape:pageopacity="0.0"
     inkscape:pagecheckerboard="0"
     inkscape:deskcolor="#d1d1d1"
     showgrid="false"
     inkscape:zoom="2.8284271"
     inkscape:cx="55.68466"
     inkscape:cy="123.03658"
     inkscape:window-width="1920"
     inkscape:window-height="1138"
     inkscape:window-x="-6"
     inkscape:window-y="33"
     inkscape:window-maximized="1"
     inkscape:current-layer="g1" />
  <g
     inkscape:groupmode="layer"
     inkscape:label="Image"
     id="g1"
     style="display:inline">
    <g
       id="g3"
       transform="translate(0,36.66684)">
      <rect
         style="fill:#005eb8;fill-opacity:1"
         id="rect1"
         width="242.67075"
         height="10.377207"
         x="0.005622495"
         y="115.44216" />
      <rect
         style="fill:#005eb8;fill-opacity:1"
         id="rect2"
         width="7.4518728"
         height="28.337366"
         x="209.71672"
         y="125.81228" />
      <rect
         style="fill:#005eb8;fill-opacity:1"
         id="rect2-3"
         width="7.4518728"
         height="28.337366"
         x="31.608316"
         y="125.81125" />
      <circle
         style="fill:#005eb8;fill-opacity:1;stroke-width:1.12245"
         id="path3"
         cx="35.5"
         cy="155.58333"
         r="13.75" />
      <circle
         style="fill:#005eb8;fill-opacity:1;stroke-width:1.12245"
         id="path3-8"
         cx="213.5"
         cy="155.58333"
         r="13.75" />
      <rect
         style="fill:#005eb8;fill-opacity:1"
         id="rect3"
         width="159.21358"
         height="18.045956"
         x="83.450485"
         y="95.469673" />
      <path
         id="rect3-2"
         style="fill:#005eb8;fill-opacity:1;stroke-width:0.774782"
         d="m 26.396283,64.732193 c -1.079335,0.455006 -1.833644,1.52186 -1.833644,2.77052 l 7.32e-4,8.883297 1.912119,5.946217 c 0.33907,0.132157 0.704632,0.211105 1.091646,0.211105 l 86.469704,-3.11e-4 5.883,-1.89179 c 0.13697,-0.344509 0.21628,-0.719371 0.21628,-1.113827 l 10e-4,-12.035232 c 0,-1.66488 -1.34087,-3.005388 -3.00575,-3.005388 l -89.563603,1.75e-4 c -0.416221,0 -0.811965,0.08356 -1.171744,0.235234 z"
         transform="rotate(17.82618)" />
      <g
         id="g2">
        <path
           id="rect4"
           style="fill:#005eb8;fill-opacity:1"
           d="M 0,0 V 1.9375 H 3.601563 A 3.875,3.875 0 0 0 6.125,4.6074219 V 6.375 H 2.5 C 1.115003,6.375 0,7.4900028 0,8.875 V 33.5 C 0,34.884998 1.115003,36 2.5,36 H 6.125 V 68.375 H 8.5 V 36 h 4 C 13.884998,36 15,34.884998 15,33.5 V 8.875 c 0,-1.3849972 -1.115002,-2.5 -2.5,-2.5 h -4 V 4.6269531 A 3.875,3.875 0 0 0 11.214844,1 h -1.5 A 2.375,2.375 0 0 1 7.34375,3.3125 2.375,2.375 0 0 1 4.970703,0.96875 h -0.002 V 0.9375 0 H 3.591797 Z m 5.644531,15.177734 h 3.710938 v 4.154297 h 4.154297 v 3.710938 H 9.355469 v 4.154297 H 5.644531 v -4.154297 h -4.15625 v -3.710938 h 4.15625 z" />
      </g>
    </g>
  </g>
</svg>
