<svg width="48" height="48" viewBox="0 0 48 48" fill="none" xmlns="http://www.w3.org/2000/svg">
<g id="Frame">
<path id="Vector" d="M23.9996 40C25.6996 40 27.3329 39.7417 28.8996 39.225C30.4663 38.7083 31.9329 37.9667 33.2996 37C31.9329 36.0333 30.4663 35.2917 28.8996 34.775C27.3329 34.2583 25.6996 34 23.9996 34C22.2996 34 20.6663 34.2583 19.0996 34.775C17.5329 35.2917 16.0663 36.0333 14.6996 37C16.0663 37.9667 17.5329 38.7083 19.0996 39.225C20.6663 39.7417 22.2996 40 23.9996 40ZM29.2996 23.6L26.4496 20.75C26.6163 20.4833 26.7496 20.2 26.8496 19.9C26.9496 19.6 26.9996 19.3 26.9996 19C26.9996 18.1667 26.7079 17.4583 26.1246 16.875C25.5413 16.2917 24.8329 16 23.9996 16C23.6996 16 23.3996 16.05 23.0996 16.15C22.7996 16.25 22.5163 16.3833 22.2496 16.55L19.3996 13.7C20.0329 13.1333 20.7413 12.7083 21.5246 12.425C22.3079 12.1417 23.1329 12 23.9996 12C25.9329 12 27.5829 12.6833 28.9496 14.05C30.3163 15.4167 30.9996 17.0667 30.9996 19C30.9996 19.8667 30.8579 20.6917 30.5746 21.475C30.2913 22.2583 29.8663 22.9667 29.2996 23.6ZM40.6996 35L37.7996 32.1C38.5329 30.8667 39.0829 29.5667 39.4496 28.2C39.8163 26.8333 39.9996 25.4333 39.9996 24C39.9996 19.5333 38.4496 15.75 35.3496 12.65C32.2496 9.55 28.4663 8 23.9996 8C22.5663 8 21.1663 8.18333 19.7996 8.55C18.4329 8.91667 17.1329 9.46667 15.8996 10.2L12.9996 7.3C14.6329 6.23333 16.3829 5.41667 18.2496 4.85C20.1163 4.28333 22.0329 4 23.9996 4C26.7663 4 29.3663 4.525 31.7996 5.575C34.2329 6.625 36.3496 8.05 38.1496 9.85C39.9496 11.65 41.3746 13.7667 42.4246 16.2C43.4746 18.6333 43.9996 21.2333 43.9996 24C43.9996 25.9667 43.7163 27.8833 43.1496 29.75C42.5829 31.6167 41.7663 33.3667 40.6996 35ZM23.9996 44C21.2329 44 18.6329 43.475 16.1996 42.425C13.7663 41.375 11.6496 39.95 9.84961 38.15C8.04961 36.35 6.62461 34.2333 5.57461 31.8C4.52461 29.3667 3.99961 26.7667 3.99961 24C3.99961 22.0333 4.27461 20.1167 4.82461 18.25C5.37461 16.3833 6.18294 14.6167 7.24961 12.95L1.34961 7L4.19961 4.15L43.7996 43.75L40.9496 46.6L10.1996 15.9C9.46628 17.1333 8.91628 18.4333 8.54961 19.8C8.18294 21.1667 7.99961 22.5667 7.99961 24C7.99961 25.9 8.31628 27.7167 8.94961 29.45C9.58294 31.1833 10.4996 32.7667 11.6996 34.2C13.4996 32.8333 15.4413 31.7917 17.5246 31.075C19.6079 30.3583 21.7663 30 23.9996 30C25.2663 30 26.5329 30.1333 27.7996 30.4C29.0663 30.6667 30.2996 31.0333 31.4996 31.5L38.1496 38.15C36.2496 40.05 34.0829 41.5 31.6496 42.5C29.2163 43.5 26.6663 44 23.9996 44Z" fill="#0065B0"/>
</g>
</svg>
