<svg width="45" height="45" viewBox="0 0 45 45" fill="none" xmlns="http://www.w3.org/2000/svg">
<path d="M23.323 38.7857C23.9203 37.3007 24.0804 35.6659 23.7831 34.0869C23.4859 32.5079 22.7446 31.0552 21.6523 29.9114C21.9528 29.1271 22.0099 28.2654 21.8156 27.446C21.6212 26.6267 21.1851 25.8904 20.5679 25.3397L23.3438 22.4647C23.7183 22.0759 23.9287 21.5491 23.9287 20.9999C23.9287 20.4507 23.7183 19.9239 23.3438 19.5351L20.5156 16.6059C20.1403 16.2179 19.6316 16 19.1012 16C18.571 16 18.0623 16.2179 17.687 16.6059L4.5146 30.2487C4.14015 30.6375 3.92986 31.1643 3.92986 31.7135C3.92986 32.2627 4.14015 32.7895 4.5146 33.1783L7.3428 36.1075C7.7182 36.4954 8.22683 36.7132 8.75711 36.7132C9.28739 36.7132 9.79602 36.4954 10.1714 36.1075L14.9463 31.1615C15.6234 31.973 16.582 32.4751 17.6143 32.559C18.6467 32.6429 19.6692 32.3018 20.4602 31.6096C21.2823 32.5838 21.7871 33.8013 21.9031 35.0895C22.019 36.3778 21.7402 37.671 21.1062 38.7857H13.9287V42.9286H1.92871V45H25.9287V38.7857H23.323ZM8.75682 34.6429L5.92871 31.7134L7.80742 29.7679L10.6357 32.6969L8.75682 34.6429ZM13.9287 28.4286C13.9302 28.6903 13.9557 28.9512 14.0049 29.2079L12.0498 31.2324L9.2214 28.3032L19.1014 18.0704L21.9296 20.9996L18.6808 24.3647C18.1023 24.2456 17.5054 24.2613 16.9332 24.4108C16.3612 24.5602 15.8284 24.8395 15.3735 25.2285C14.9186 25.6175 14.553 26.1065 14.3031 26.66C14.0532 27.2135 13.9253 27.8176 13.9287 28.4286ZM17.9287 30.5001C17.5331 30.5001 17.1464 30.3785 16.8175 30.1509C16.4887 29.9234 16.2323 29.5998 16.081 29.2213C15.9295 28.8428 15.8899 28.4263 15.9671 28.0245C16.0443 27.6227 16.2348 27.2536 16.5144 26.9639C16.7942 26.6742 17.1506 26.4769 17.5386 26.397C17.9264 26.3171 18.3286 26.3581 18.694 26.5149C19.0595 26.6717 19.3719 26.9372 19.5916 27.2778C19.8114 27.6185 19.9287 28.0189 19.9287 28.4286C19.928 28.9778 19.7172 29.5044 19.3423 29.8927C18.9674 30.281 18.459 30.4994 17.9287 30.5001ZM23.9287 42.9286H15.9287V40.8572H23.9287V42.9286Z" fill="#0065B0"/>
<path d="M32.8958 25.1667C30.7208 25.1667 28.8681 24.4014 27.3375 22.8708C25.8069 21.3403 25.0417 19.4875 25.0417 17.3125V16.6177C23.3097 16.3358 21.8698 15.5252 20.7219 14.1859C19.574 12.8467 19 11.2708 19 9.45833V2.20833H22.625V1H25.0417V5.83333H22.625V4.625H21.4167V9.45833C21.4167 10.7875 21.8899 11.9253 22.8365 12.8719C23.783 13.8184 24.9208 14.2917 26.25 14.2917C27.5792 14.2917 28.717 13.8184 29.6635 12.8719C30.6101 11.9253 31.0833 10.7875 31.0833 9.45833V4.625H29.875V5.83333H27.4583V1H29.875V2.20833H33.5V9.45833C33.5 11.2708 32.926 12.8467 31.7781 14.1859C30.6302 15.5252 29.1903 16.3358 27.4583 16.6177V17.3125C27.4583 18.8229 27.987 20.1068 29.0443 21.1641C30.1016 22.2214 31.3854 22.75 32.8958 22.75C34.4062 22.75 35.6901 22.2214 36.7474 21.1641C37.8047 20.1068 38.3333 18.8229 38.3333 17.3125V15.2885C37.6285 15.0469 37.0495 14.6139 36.5964 13.9896C36.1432 13.3653 35.9167 12.6604 35.9167 11.875C35.9167 10.8681 36.2691 10.0122 36.974 9.30729C37.6788 8.60243 38.5347 8.25 39.5417 8.25C40.5486 8.25 41.4045 8.60243 42.1094 9.30729C42.8142 10.0122 43.1667 10.8681 43.1667 11.875C43.1667 12.6604 42.9401 13.3653 42.487 13.9896C42.0339 14.6139 41.4549 15.0469 40.75 15.2885V17.3125C40.75 19.4875 39.9847 21.3403 38.4542 22.8708C36.9236 24.4014 35.0708 25.1667 32.8958 25.1667ZM39.5417 13.0833C39.884 13.0833 40.171 12.9675 40.4026 12.7359C40.6342 12.5043 40.75 12.2174 40.75 11.875C40.75 11.5326 40.6342 11.2457 40.4026 11.0141C40.171 10.7825 39.884 10.6667 39.5417 10.6667C39.1993 10.6667 38.9123 10.7825 38.6807 11.0141C38.4491 11.2457 38.3333 11.5326 38.3333 11.875C38.3333 12.2174 38.4491 12.5043 38.6807 12.7359C38.9123 12.9675 39.1993 13.0833 39.5417 13.0833Z" fill="#0065B0"/>
</svg>
