<svg width="37" height="46" viewBox="0 0 37 46" fill="none" xmlns="http://www.w3.org/2000/svg">
<g id="layer1">
<g id="g18">
<path id="path9" d="M32.6797 35.8572C33.5922 33.5528 33.8368 31.0161 33.3826 28.5659C32.9286 26.1158 31.7962 23.8615 30.1278 22.0866C30.5869 20.8697 30.674 19.5325 30.3773 18.2611C30.0803 16.9896 29.4142 15.8472 28.4714 14.9927L32.7115 10.5314C33.2836 9.9281 33.605 9.11069 33.605 8.25846C33.605 7.40625 33.2836 6.58881 32.7115 5.98549L28.3915 1.44018C27.8182 0.838129 27.0412 0.5 26.231 0.5C25.4211 0.5 24.6441 0.838129 24.0708 1.44018L3.94995 22.6101C3.37797 23.2133 3.05675 24.0308 3.05675 24.883C3.05675 25.7352 3.37797 26.5527 3.94995 27.1559L8.27003 31.7013C8.84345 32.3033 9.62038 32.6412 10.4304 32.6412C11.2404 32.6412 12.0173 32.3033 12.5907 31.7013L19.8844 24.0265C20.9186 25.2856 22.383 26.0648 23.9598 26.1951C25.5367 26.3251 27.0987 25.7959 28.3068 24.7219C29.5626 26.2334 30.3337 28.1228 30.5109 30.1216C30.6879 32.1207 30.262 34.1275 29.2936 35.8572H18.33V42.2857H0V45.5H36.66V35.8572H32.6797ZM10.4299 29.4286L6.11 24.8828L8.97972 21.8639L13.2999 26.4089L10.4299 29.4286ZM18.33 19.7858C18.3322 20.1919 18.3712 20.5967 18.4464 20.995L15.46 24.1364L11.1396 19.5912L26.2312 3.71268L30.5514 8.25798L25.5889 13.4797C24.7052 13.2949 23.7934 13.3193 22.9194 13.5512C22.0457 13.783 21.2318 14.2165 20.5369 14.8201C19.8421 15.4238 19.2836 16.1825 18.9019 17.0414C18.5201 17.9002 18.3248 18.8377 18.33 19.7858ZM24.44 23.0001C23.8357 23.0001 23.2451 22.8115 22.7426 22.4584C22.2404 22.1052 21.8487 21.6032 21.6176 21.0158C21.3862 20.4285 21.3257 19.7823 21.4437 19.1587C21.5616 18.5352 21.8526 17.9625 22.2797 17.513C22.707 17.0634 23.2514 16.7573 23.8441 16.6333C24.4365 16.5093 25.0508 16.5729 25.609 16.8162C26.1673 17.0595 26.6445 17.4715 26.9801 18.0001C27.3158 18.5286 27.495 19.1501 27.495 19.7858C27.494 20.638 27.172 21.4551 26.5993 22.0577C26.0266 22.6602 25.25 22.999 24.44 23.0001ZM33.605 42.2857H21.385V39.0715H33.605V42.2857Z" fill="#0065B0"/>
</g>
</g>
</svg>
