<svg width="45" height="45" viewBox="0 0 45 45" fill="none" xmlns="http://www.w3.org/2000/svg">
<path d="M35.8941 35.3572C36.8065 33.0528 37.0511 30.5161 36.597 28.0659C36.143 25.6158 35.0106 23.3615 33.3422 21.5866C33.8012 20.3697 33.8884 19.0325 33.5916 17.7611C33.2947 16.4896 32.6285 15.3472 31.6857 14.4927L35.9259 10.0314C36.498 9.4281 36.8194 8.61069 36.8194 7.75846C36.8194 6.90625 36.498 6.08881 35.9259 5.48549L31.6059 0.940182C31.0326 0.338129 30.2556 0 29.4454 0C28.6354 0 27.8584 0.338129 27.2851 0.940182L7.16431 22.1101C6.59233 22.7133 6.27111 23.5308 6.27111 24.383C6.27111 25.2352 6.59233 26.0527 7.16431 26.6559L11.4844 31.2013C12.0578 31.8033 12.8347 32.1412 13.6447 32.1412C14.4547 32.1412 15.2317 31.8033 15.8051 31.2013L23.0987 23.5265C24.133 24.7856 25.5973 25.5648 27.1741 25.6951C28.7511 25.8251 30.313 25.2959 31.5212 24.2219C32.777 25.7334 33.5481 27.6228 33.7253 29.6216C33.9022 31.6207 33.4764 33.6275 32.5079 35.3572H21.5444V41.7857H3.21436V45H39.8744V35.3572H35.8941ZM13.6443 28.9286L9.32436 24.3828L12.1941 21.3639L16.5143 25.9089L13.6443 28.9286ZM21.5444 19.2858C21.5466 19.6919 21.5856 20.0967 21.6608 20.495L18.6743 23.6364L14.3539 19.0912L29.4456 3.21268L33.7658 7.75798L28.8032 12.9797C27.9195 12.7949 27.0077 12.8193 26.1338 13.0512C25.26 13.283 24.4462 13.7165 23.7513 14.3201C23.0565 14.9238 22.4979 15.6825 22.1162 16.5414C21.7345 17.4002 21.5391 18.3377 21.5444 19.2858ZM27.6544 22.5001C27.0501 22.5001 26.4594 22.3115 25.957 21.9584C25.4548 21.6052 25.0631 21.1032 24.8319 20.5158C24.6006 19.9285 24.5401 19.2823 24.658 18.6587C24.7759 18.0352 25.067 17.4625 25.4941 17.013C25.9214 16.5634 26.4658 16.2573 27.0584 16.1333C27.6509 16.0093 28.2652 16.0729 28.8234 16.3162C29.3817 16.5595 29.8588 16.9715 30.1945 17.5001C30.5301 18.0286 30.7094 18.6501 30.7094 19.2858C30.7083 20.138 30.3863 20.9551 29.8136 21.5577C29.2409 22.1602 28.4643 22.499 27.6544 22.5001ZM36.8194 41.7857H24.5994V38.5715H36.8194V41.7857Z" fill="#225494"/>
</svg>
