<svg width="982" height="1024" viewBox="0 0 982 1024" fill="none" xmlns="http://www.w3.org/2000/svg">
<path d="M784.42 147.135C731.945 149.531 689.931 155.374 643.358 166.768C627.99 170.508 623.958 172.086 618.815 176.293C615.485 179.039 611.219 185.233 609.641 189.732C608.063 194.173 607.538 201.71 608.472 206.502C610.635 217.779 619.984 227.712 631.028 230.575C637.456 232.27 642.482 231.861 656.74 228.355C691.333 219.765 727.329 214.039 761.63 211.702C766.597 211.351 772.207 210.942 774.077 210.767L777.408 210.475V284.682V358.832L774.953 359.124C773.551 359.299 768 359.825 762.507 360.351C719.791 364.324 674.621 375.134 634.885 390.852C620.802 396.403 615.835 399.967 611.511 407.622C608.472 413.056 607.654 416.386 607.713 423.457C607.713 428.774 608.005 430.527 609.174 433.682C613.03 443.966 620.744 450.919 631.087 453.549C639.268 455.652 644.001 455.009 656.448 450.043C735.218 418.665 819.715 411.946 903.101 430.468C923.553 435.026 948.797 443.031 967.905 450.978C973.866 453.432 980.411 455.944 982.514 456.529C998.584 460.969 1015.94 451.153 1020.73 434.909C1021.78 431.286 1021.96 422.522 1021.02 418.49C1019.45 411.712 1013.78 403.765 1007.76 399.85C1001.8 396.052 974.275 385.359 955.926 379.75C919.58 368.59 885.688 362.279 845.66 359.182L840.517 358.773V284.624V210.475L843.907 210.767C845.718 210.942 851.328 211.351 856.295 211.702C890.771 214.098 926.475 219.765 961.361 228.413C974.041 231.51 974.801 231.627 980.411 231.393C987.54 231.043 992.039 229.407 997.59 225.2C1016.46 210.884 1013.13 181.259 991.513 171.56C987.773 169.924 969.425 165.308 952.303 161.685C920.106 154.848 885.804 150.291 850.159 147.953C840.926 147.311 792.893 146.726 784.42 147.135Z" fill="#225494" fill-opacity="0.08"/>
<path d="M472.202 235.66C470.683 235.953 467.936 236.887 466.125 237.647C457.886 241.328 421.948 264.35 402.84 278.257C373.272 299.759 347.619 321.788 320.739 348.666C286.671 382.673 260.259 414.927 233.671 455.011C220.991 474.177 211.057 490.713 209.362 495.621C207.551 500.938 207.551 508.943 209.304 514.611C212.401 524.836 221.633 533.601 231.626 535.88C235.658 536.815 244.423 536.639 248.046 535.588C257.629 532.783 261.953 528.693 270.836 513.968C289.009 483.759 311.214 453.258 335.172 425.62L343.47 416.096L396.178 468.801L448.887 521.506L440.998 530.913C385.543 597.057 349.08 677.692 335.99 763.236C334.354 773.929 332.367 790.815 331.783 799.58L331.374 805.306H257.279H183.125V801.859C183.125 794.204 185.462 768.962 187.858 751.257C190.897 728.586 196.331 700.714 201.765 679.971C204.044 671.499 204.395 667.876 203.635 662.676C202.876 657.534 199.487 650.347 195.98 646.315C184.527 633.051 163.082 632.467 150.401 645.146C144.908 650.697 143.389 654.086 139.299 670.388C115.34 766.157 112.535 868.587 131.176 966.693C135.792 991.117 141.87 1015.54 144.616 1020.98C147.07 1025.88 152.505 1031.43 157.297 1033.95C175.061 1043.3 195.688 1035.35 202.291 1016.59C203.46 1013.26 203.752 1011.33 203.752 1006.89C203.752 1002.1 203.285 999.59 200.421 988.196C194.286 963.83 188.968 934.497 186.105 908.437C184.702 895.758 183.125 876.592 183.125 871.859V868.412H257.279H331.374L331.783 874.08C332.426 883.136 334.296 899.439 335.932 910.132C349.08 996.96 386.303 1078.59 443.218 1145.73L447.718 1151.04L395.01 1203.75L342.301 1256.45L336.75 1250.14C311.389 1221.22 287.665 1188.73 269.901 1158.81C262.479 1146.31 258.389 1141.64 252.078 1138.54C247.111 1136.09 244.131 1135.5 237.703 1135.44C228.821 1135.44 221.633 1138.36 215.498 1144.56C205.973 1154.26 203.752 1168.69 210.005 1181.02C213.102 1187.15 223.27 1203.63 233.087 1218.41C290.119 1304.19 364.799 1375.54 452.919 1428.42C464.898 1435.6 467.936 1436.89 474.131 1437.71C483.772 1438.88 492.888 1435.72 499.783 1428.83C506.036 1422.63 509.191 1415.15 509.191 1406.56C509.191 1394.76 503.29 1385 492.187 1378.52C459.346 1359.29 425.688 1335.04 396.471 1309.57L386.946 1301.21L449.705 1238.34C510.243 1177.75 515.678 1172.02 519.009 1165.48C521.93 1159.69 522.924 1150.11 521.171 1143.68C519.593 1137.55 517.372 1134.39 508.023 1124.34C492.771 1108.04 482.311 1095.48 471.443 1080.52C451.867 1053.52 435.038 1022.96 422.708 992.286C405.879 950.274 396.237 907.21 393.432 861.108C392.088 839.255 393.257 806.066 396.178 783.394C407.398 695.163 447.134 612.542 509.016 548.676C517.197 540.262 519.827 536.639 522.106 530.972C523.274 527.992 523.45 526.472 523.45 520.454C523.45 512.683 522.515 509.177 519.009 503.567C517.898 501.756 492.012 475.404 452.685 436.021L388.173 371.396L397.698 363.157C425.104 339.317 456.074 316.763 486.636 298.357C495.693 292.923 498.965 290.644 501.536 287.898C507.205 281.763 509.776 275.16 509.776 266.571C509.717 257.572 507.322 251.437 501.244 244.951C493.765 237.063 483.013 233.615 472.202 235.66Z" fill="#225494" fill-opacity="0.08"/>
<path d="M804.581 471.078C786.933 473.474 774.604 490.711 778.168 508.007C781.265 523.14 793.946 533.6 809.139 533.6C832.571 533.541 847.413 509 836.895 487.906C830.876 475.986 818.079 469.267 804.581 471.078Z" fill="#225494" fill-opacity="0.08"/>
<path d="M564.764 569.594C553.719 572.574 545.071 581.163 542.208 592.09C541.097 596.239 541.097 603.776 542.208 608.1C545.013 618.676 553.778 627.558 564.413 630.362C567.861 631.297 576.743 631.414 580.483 630.538C590.767 628.201 599.766 619.202 602.98 608.1C604.382 603.367 603.973 593.668 602.162 589.11C598.364 579.235 589.365 571.464 579.431 569.302C575.282 568.425 568.62 568.542 564.764 569.594Z" fill="#225494" fill-opacity="0.08"/>
<path d="M802.827 581.514C791.783 583.735 782.784 591.681 779.278 602.257C774.252 617.332 780.972 633.576 795.114 640.53C804.229 645.029 813.638 644.97 822.87 640.471C839.933 632.116 845.718 610.204 834.908 594.544C827.896 584.377 814.923 579.118 802.827 581.514Z" fill="#225494" fill-opacity="0.08"/>
<path d="M644.761 647.015C634.593 648.709 625.01 656.831 620.978 667.173C619.634 670.621 619.4 672.082 619.4 677.633C619.341 682.891 619.575 684.761 620.685 687.917C623.958 697.382 631.145 704.569 640.495 707.783C645.696 709.595 655.104 709.711 659.954 708.075C667.141 705.621 672.517 701.589 676.491 695.571C687.184 679.502 681.575 658.292 664.453 649.878C657.792 646.664 652.123 645.846 644.761 647.015Z" fill="#225494" fill-opacity="0.08"/>
<path d="M962.529 646.956C951.251 648.884 941.493 656.948 937.811 667.407C932.552 682.248 939.389 699.252 953.297 706.088C965.86 712.224 979.768 709.945 989.526 700.128C996.246 693.409 999.285 685.521 998.701 676.172C997.766 661.388 986.605 649.059 972.288 646.956C967.672 646.313 966.445 646.313 962.529 646.956Z" fill="#225494" fill-opacity="0.08"/>
<path d="M789.68 691.131C747.431 696.857 710.325 720.112 686.425 755.756C677.251 769.545 669.129 788.594 665.564 804.721C662.935 816.933 662.584 820.556 662.584 837.442C662.642 851.583 662.759 854.387 663.928 860.99C675.615 926.316 726.921 975.048 792.017 982.644C810.541 984.864 832.454 983.053 849.868 977.911C862.314 974.23 876.164 968.036 886.39 961.609C899.596 953.311 914.146 940.515 923.145 929.179C941.202 906.625 952.129 880.156 955.109 851.583C956.102 842.058 955.518 822.192 953.94 813.135C948.623 781.991 934.832 755.23 912.744 733.084C889.311 709.712 860.211 695.338 827.487 691.072C818.78 689.962 798.211 689.962 789.68 691.131ZM825.442 754.47C858.867 761.482 884.637 787.425 891.298 820.789C893.752 833.294 893.402 845.038 890.188 857.601C886.214 873.085 878.793 885.648 866.989 897.042C852.906 910.715 835.902 918.545 815.917 920.473C796.4 922.343 774.779 916.091 758.826 904.054C726.044 879.279 715.701 835.689 733.933 799.287C746.496 774.22 770.396 757.275 799.029 753.301C804.99 752.483 818.956 753.068 825.442 754.47Z" fill="#225494" fill-opacity="0.08"/>
<path d="M470.039 805.304C462.676 806.414 454.788 810.796 450.639 816.055C439.945 829.494 441.114 848.309 453.327 859.528C471.558 876.181 500.542 866.598 505.509 842.232C509.775 821.489 491.193 802.09 470.039 805.304Z" fill="#225494" fill-opacity="0.08"/>
<path d="M580.19 805.305C565.231 807.292 553.603 820.731 553.603 836.099C553.603 844.98 556.174 851.583 562.192 857.952C568.796 864.964 577.502 868.294 587.203 867.651C599.474 866.775 609.992 858.945 614.492 847.259C616.011 843.286 616.595 833.995 615.544 829.379C612.037 813.602 596.669 803.143 580.19 805.305Z" fill="#225494" fill-opacity="0.08"/>
<path d="M640.671 964.998C628.166 969.263 620.043 979.84 619.225 992.87C618.641 1002.22 621.679 1010.22 628.341 1016.88C644.936 1033.48 672.518 1027.11 680.289 1004.91C682.218 999.356 682.335 990.941 680.465 985.215C677.251 975.223 668.018 966.576 658.201 964.297C653.468 963.187 644.878 963.537 640.671 964.998Z" fill="#225494" fill-opacity="0.08"/>
<path d="M958.965 964.53C953.881 965.932 949.615 968.503 945.35 972.71C927.995 989.889 935.883 1019.16 959.549 1025.3C963.698 1026.41 971.295 1026.41 975.21 1025.36C980.703 1023.9 984.969 1021.38 989.234 1017.12C995.662 1010.75 998.876 1003.27 998.876 994.622C998.876 980.949 988.884 968.094 975.444 964.53C971.587 963.478 962.763 963.478 958.965 964.53Z" fill="#225494" fill-opacity="0.08"/>
</svg>
