<svg width="1061" height="1101" viewBox="0 0 1061 1101" fill="none" xmlns="http://www.w3.org/2000/svg">
<g clip-path="url(#clip0_324_3904)">
<path d="M1032.38 818.561C1000.82 731.854 904.325 686.858 817.619 718.416C730.912 749.975 685.916 846.47 717.475 933.176C749.033 1019.88 845.528 1064.88 932.235 1033.32C1019.37 1001.61 1064.09 905.699 1032.38 818.561ZM899.263 942.732C862.165 956.235 821.409 936.872 808.064 900.205C794.561 863.107 813.924 822.351 850.591 809.005C887.689 795.503 928.444 814.865 941.79 851.532C955.293 888.631 936.361 929.229 899.263 942.732Z" fill="#225494" fill-opacity="0.1"/>
<path d="M857.457 289.65C811.021 290.919 765.332 298.266 720.35 310.242L742.017 369.772C784.411 358.738 827.237 352.921 870.928 352.163C897.637 351.724 919.136 373.21 919.575 399.919C920.015 426.628 898.528 448.127 871.82 448.566C823.187 449.169 775.066 457.89 728.909 474.69C682.752 491.489 640.284 515.74 602.641 546.539C581.899 563.37 551.62 560.712 534.788 539.97C517.957 519.227 520.615 488.949 541.357 472.117C575.157 444.182 611.703 421.11 651.428 402.743L629.761 343.213C587.448 362.522 547.882 386.694 511.494 415.57C490.595 431.971 460.433 428.293 443.602 407.55C427.201 386.651 430.879 356.489 451.622 339.658C508.635 294.969 572.436 259.535 641.024 234.57C709.613 209.606 781.264 195.74 853.664 193.326C880.216 192.456 902.42 213.197 903.448 240.18C905.182 266.418 884.009 288.779 857.457 289.65Z" fill="#225494" fill-opacity="0.1"/>
<path d="M1518.97 641.455C1494.01 572.867 1458.57 509.066 1414.04 452.484C1412.23 450.21 1410.59 448.367 1408.51 446.681C1407.13 444.25 1405.17 441.544 1403.37 439.27C1357.11 383.317 1302.5 335.288 1240.44 296.321C1178.39 257.355 1111.23 228.548 1040.91 211.155C1015.18 204.887 989.02 220.269 982.321 246.156C976.053 271.887 991.435 298.042 1017.32 304.741C1062.35 315.709 1105.65 332.679 1146.61 353.924L1088.43 446.423C1080.36 459.132 1079.03 474.272 1083.31 487.37C1086.64 497.88 1093.27 506.703 1103.32 512.818C1143.8 538.142 1179.22 569.704 1208.69 606.366C1238.15 643.028 1261.5 684.36 1277.83 729.223C1292.43 769.341 1300.96 810.205 1303.12 852.406C1303.2 855.308 1303.28 858.21 1303.36 861.113C1303.44 864.015 1303.68 867.349 1303.76 870.251C1304.32 912.059 1298.64 954.183 1286.97 994.584C1279.68 1020.2 1294.36 1047.1 1319.97 1054.38L1424.78 1084.63C1408.39 1128.21 1387.15 1169.16 1361.04 1207.49C1346.1 1229.53 1351.72 1259.73 1373.77 1274.67C1387.22 1283.45 1403.54 1285.33 1417.34 1280.3C1426.4 1277.01 1434.95 1270.96 1440.52 1262.1C1481.29 1202.31 1512.29 1135.83 1532.74 1065.85C1551.82 998.82 1560.98 930.025 1559.24 860.802C1559.63 859.194 1559.43 857.311 1559.23 855.429C1556.82 783.029 1542.95 711.378 1517.99 642.789C1519.13 641.887 1519.13 641.887 1518.97 641.455ZM1463.77 853.535C1465.47 899.814 1461.8 946.095 1452.44 991.515L1391.84 974.001C1398.34 940.858 1401.35 907.52 1401.3 873.83C1401.42 872.81 1401.53 871.791 1401.22 870.928C1401.34 869.908 1401.18 869.477 1401.3 868.457C1401.49 864.966 1401.1 861.201 1400.86 857.868C1400.9 853.946 1400.51 850.181 1400.55 846.259C1400.39 845.827 1400.51 844.808 1400.35 844.376C1400.19 843.945 1400.31 842.925 1400.15 842.494C1398.06 808.569 1392.64 774.88 1383.61 742.017L1443.14 720.349C1454.92 763.449 1461.8 807.844 1463.73 852.084C1463.46 852.672 1463.61 853.104 1463.77 853.535ZM1333.73 505.651C1335.11 508.082 1336.32 510.082 1338.13 512.356C1366.41 548.47 1390.59 588.036 1409.9 630.349L1350.8 651.859C1334 616.448 1313.48 582.882 1289.11 552.179C1288.8 551.317 1288.21 551.042 1287.9 550.18C1286.84 548.611 1285.5 547.631 1284.44 546.062C1283.38 544.494 1282.48 543.357 1280.99 541.945C1280.25 541.24 1280.09 540.808 1279.34 540.103C1254.27 510.146 1226.22 482.739 1194.64 459.059L1228.47 405.71C1265.55 433.741 1299.09 465.5 1328.67 501.142C1330.59 502.397 1332.08 503.808 1333.73 505.651Z" fill="#225494" fill-opacity="0.1"/>
<path d="M233.471 1109.34C208.507 1040.75 194.641 969.099 192.384 897.13C192.305 894.228 192.383 891.757 192.892 889.129C192.381 886.384 192.145 883.05 192.065 880.148C191.534 807.552 202.495 735.658 224.986 665.918C247.478 596.178 280.404 530.945 323.097 472.416C338.779 451.075 368.703 446.046 390.474 461.571C411.815 477.253 416.844 507.176 401.319 528.948C373.876 566.294 351.611 607.129 333.896 649.727L437.918 683.19C452.274 687.736 463.023 698.479 468.165 711.263C472.364 721.459 472.956 732.48 469.194 743.619C454.461 789.041 447.611 835.989 448.605 883.014C449.6 930.039 458.281 976.708 474.61 1021.57C489.212 1061.69 508.95 1098.47 534.414 1132.19C536.219 1134.47 538.024 1136.74 539.829 1139.02C541.633 1141.29 543.595 1144 545.4 1146.27C571.844 1178.66 603.268 1207.28 638.181 1230.72C660.227 1245.66 666.275 1275.7 651.339 1297.75L590.496 1388.28C631.056 1411.14 673.655 1428.85 718.291 1441.43C743.904 1448.72 759.012 1475.46 751.724 1501.07C747.062 1516.45 735.77 1528.38 721.966 1533.4C712.907 1536.7 702.474 1537.56 692.512 1534.35C622.851 1514.76 556.363 1483.76 495.717 1443.3C438.013 1404.21 386.777 1357.4 343.619 1303.25C342.286 1302.27 341.226 1300.7 340.167 1299.13C295.478 1242.12 260.043 1178.32 235.079 1109.73C233.628 1109.77 233.628 1109.77 233.471 1109.34ZM412.078 1236.32C440.523 1272.86 473.086 1305.96 509.451 1334.73L544.616 1282.36C518.333 1261.15 494.598 1237.55 472.98 1211.71C472.234 1211.01 471.489 1210.3 471.175 1209.44C470.429 1208.73 470.272 1208.3 469.527 1207.59C467.134 1205.05 465.015 1201.91 463.053 1199.2C460.503 1196.22 458.384 1193.09 455.834 1190.11C455.677 1189.67 454.932 1188.97 454.775 1188.54C454.618 1188.11 453.872 1187.4 453.715 1186.97C433.509 1159.64 416.008 1130.35 401.801 1099.37L342.271 1121.03C360.952 1161.62 384.221 1200.05 411.176 1235.18C411.764 1235.46 411.921 1235.89 412.078 1236.32ZM288.078 886.238C288.589 888.983 288.942 891.297 289.022 894.199C290.565 940.047 297.481 985.894 309.888 1030.72L368.986 1009.21C359.092 971.286 353.236 932.381 352.166 893.2C351.852 892.338 352.126 891.749 351.812 890.886C351.616 889.004 352.007 887.396 351.811 885.513C351.614 883.631 351.574 882.18 351.809 880.14C351.926 879.12 351.77 878.689 351.887 877.669C351.836 838.606 355.707 799.581 364.677 761.142L304.469 742.021C294.089 787.323 288.808 833.212 289.057 879.531C288.391 881.728 288.156 883.767 288.078 886.238Z" fill="#225494" fill-opacity="0.1"/>
<path d="M751.99 676.352C753.521 679.215 755.326 681.489 757.719 684.037C759.955 686.155 762.191 688.272 764.859 690.232C767.526 692.192 770.037 693.721 772.979 695.093C775.921 696.465 778.705 697.405 781.922 698.189C785.138 698.972 788.197 699.324 791.257 699.676C794.316 700.028 797.65 699.792 800.826 699.124C804.003 698.457 807.18 697.789 809.768 696.847C812.787 695.748 815.65 694.218 818.081 692.844C820.944 691.314 823.218 689.509 825.767 687.116C827.884 684.88 830.001 682.643 831.961 679.976C833.922 677.308 835.451 674.798 836.822 671.856C838.194 668.914 839.135 666.129 839.918 662.913C840.702 659.696 841.054 656.637 841.406 653.578C841.758 650.519 841.521 647.185 840.854 644.008C840.186 640.832 839.518 637.655 838.419 634.635C837.32 631.616 835.79 628.753 834.416 626.322C832.886 623.459 831.081 621.185 828.688 618.636C826.452 616.519 824.216 614.402 821.548 612.442C818.881 610.482 816.37 608.953 813.428 607.581C810.486 606.209 807.701 605.269 804.485 604.485C801.269 603.702 798.21 603.35 795.15 602.997C792.091 602.645 788.757 602.882 785.581 603.549C779.502 604.296 773.031 606.652 767.894 609.987C765.032 611.517 762.757 613.322 760.209 615.715C758.092 617.951 755.974 620.187 754.014 622.855C752.054 625.523 750.525 628.033 749.153 630.975C747.781 633.917 746.841 636.702 746.057 639.918C745.274 643.134 744.922 646.194 744.57 649.253C744.218 652.312 744.454 655.646 745.122 658.823C745.789 661.999 746.457 665.176 747.399 667.764C749.087 671.058 750.46 673.489 751.99 676.352Z" fill="#225494" fill-opacity="0.1"/>
<path d="M997.862 1075.38C996.331 1072.52 994.527 1070.25 992.133 1067.7C989.897 1065.58 987.661 1063.46 984.993 1061.5C982.326 1059.54 979.815 1058.01 976.873 1056.64C973.932 1055.27 971.147 1054.33 967.93 1053.55C964.714 1052.76 961.655 1052.41 958.596 1052.06C955.536 1051.71 952.203 1051.94 949.026 1052.61C942.947 1053.36 936.476 1055.71 931.34 1059.05C928.477 1060.58 926.203 1062.38 923.654 1064.78C921.537 1067.01 919.42 1069.25 917.459 1071.92C915.499 1074.58 913.97 1077.1 912.598 1080.04C907.111 1091.8 906.605 1105.18 910.844 1116.83C915.084 1128.47 924.225 1138.82 935.836 1143.88C938.778 1145.25 941.562 1146.19 944.779 1146.98C947.995 1147.76 951.054 1148.11 954.114 1148.46C957.173 1148.82 960.507 1148.58 963.683 1147.91C966.86 1147.24 970.036 1146.58 972.625 1145.64C975.644 1144.54 978.507 1143.01 980.938 1141.63C983.801 1140.1 986.075 1138.3 988.624 1135.9C990.741 1133.67 992.858 1131.43 994.818 1128.76C996.779 1126.1 998.307 1123.59 999.679 1120.64C1005.17 1108.88 1005.67 1095.5 1001.43 1083.85C1000.92 1081.11 999.392 1078.25 997.862 1075.38Z" fill="#225494" fill-opacity="0.1"/>
<path d="M1124.47 835.359C1127.33 833.828 1129.61 832.024 1132.16 829.63C1134.27 827.394 1136.39 825.158 1138.35 822.491C1140.31 819.823 1141.84 817.312 1143.21 814.371C1144.59 811.429 1145.53 808.644 1146.31 805.427C1147.09 802.211 1147.44 799.152 1147.8 796.093C1148.15 793.033 1147.91 789.7 1147.24 786.523C1146.58 783.346 1145.91 780.17 1144.97 777.582C1143.87 774.562 1142.34 771.699 1140.96 769.268C1139.43 766.405 1137.63 764.131 1135.24 761.583C1133 759.465 1130.76 757.348 1128.1 755.388C1125.43 753.428 1122.92 751.899 1119.98 750.527C1117.03 749.155 1114.25 748.215 1111.03 747.431C1107.82 746.648 1104.76 746.296 1101.7 745.944C1098.64 745.592 1095.31 745.828 1092.13 746.495C1086.05 747.242 1079.58 749.598 1074.44 752.933C1071.58 754.463 1069.31 756.268 1066.76 758.661C1064.64 760.897 1062.52 763.134 1060.56 765.801C1058.6 768.469 1057.07 770.979 1055.7 773.921C1050.21 785.689 1049.71 799.063 1053.95 810.71C1058.19 822.357 1067.33 832.709 1078.94 837.765C1081.88 839.137 1084.66 840.077 1087.88 840.86C1091.1 841.644 1094.16 841.996 1097.22 842.348C1100.28 842.7 1103.61 842.464 1106.79 841.796C1109.96 841.128 1113.14 840.461 1115.73 839.519C1118.32 838.577 1121.61 836.889 1124.47 835.359Z" fill="#225494" fill-opacity="0.1"/>
<path d="M615.048 989.997C617.284 992.114 619.52 994.232 622.188 996.192C624.855 998.152 627.366 999.681 630.308 1001.05C633.25 1002.42 636.035 1003.37 639.251 1004.15C642.467 1004.93 645.527 1005.28 648.586 1005.64C651.645 1005.99 654.979 1005.75 658.155 1005.08C661.332 1004.42 664.509 1003.75 667.097 1002.81C670.117 1001.71 672.979 1000.18 675.842 998.647C678.704 997.117 680.979 995.312 683.527 992.919C685.644 990.682 687.762 988.446 689.722 985.779C691.682 983.111 693.211 980.601 694.583 977.659C695.955 974.717 696.895 971.932 697.679 968.716C698.462 965.499 698.814 962.44 699.166 959.381C699.518 956.321 699.282 952.988 698.614 949.811C697.947 946.635 697.279 943.458 696.337 940.87C695.238 937.85 693.707 934.987 692.334 932.556C690.961 930.125 688.999 927.419 686.606 924.871C684.369 922.753 682.133 920.636 679.466 918.676C676.798 916.716 674.288 915.187 671.346 913.815C668.404 912.443 665.619 911.503 662.403 910.719C659.186 909.936 656.127 909.584 653.068 909.232C650.008 908.88 646.675 909.116 643.498 909.784C636.988 910.688 630.949 912.886 625.812 916.221C622.949 917.751 620.675 919.556 618.126 921.949C616.009 924.185 613.892 926.422 611.932 929.089C609.971 931.757 608.443 934.267 607.071 937.209C605.699 940.151 604.758 942.936 603.975 946.152C603.192 949.369 602.839 952.428 602.487 955.487C602.135 958.546 602.372 961.88 603.039 965.057C603.707 968.233 604.375 971.41 605.317 973.998C606.416 977.018 607.946 979.881 609.32 982.312C610.85 985.174 612.812 987.88 615.048 989.997Z" fill="#225494" fill-opacity="0.1"/>
<path d="M566.876 959.655C564.209 957.695 561.698 956.166 558.756 954.794C555.814 953.422 553.03 952.482 549.813 951.698C546.597 950.915 543.538 950.563 540.478 950.211C537.419 949.859 534.085 950.095 530.909 950.763C524.399 951.667 518.359 953.865 513.222 957.2C510.36 958.73 508.086 960.535 505.537 962.928C503.42 965.164 501.303 967.401 499.342 970.068C497.382 972.736 495.853 975.246 494.481 978.188C493.11 981.13 492.169 983.915 491.386 987.131C490.602 990.348 490.25 993.407 489.898 996.466C489.546 999.526 489.782 1002.86 490.45 1006.04C491.118 1009.21 491.785 1012.39 492.727 1014.98C497.124 1027.06 506.108 1036.98 517.719 1042.03C520.66 1043.4 523.445 1044.34 526.662 1045.13C529.878 1045.91 532.937 1046.26 535.997 1046.62C539.056 1046.97 542.389 1046.73 545.566 1046.06C548.743 1045.4 551.919 1044.73 554.508 1043.79C557.527 1042.69 560.39 1041.16 563.252 1039.63C566.115 1038.1 568.389 1036.29 570.938 1033.9C573.055 1031.66 575.172 1029.43 577.133 1026.76C579.093 1024.09 580.622 1021.58 581.994 1018.64C587.481 1006.87 587.987 993.496 583.748 981.849C582.649 978.829 581.118 975.966 579.745 973.535C578.214 970.673 576.409 968.398 574.016 965.85C571.78 963.732 569.544 961.615 566.876 959.655Z" fill="#225494" fill-opacity="0.1"/>
<path d="M741.1 586.032C744.316 586.815 747.376 587.167 750.435 587.519C753.494 587.871 756.828 587.635 760.004 586.967C763.181 586.3 766.358 585.632 768.946 584.69C781.024 580.294 790.944 571.309 796 559.699C801.488 547.931 801.994 534.557 797.755 522.91C796.655 519.89 795.125 517.027 793.752 514.596C792.221 511.733 790.416 509.459 788.023 506.911C785.787 504.793 783.551 502.676 780.883 500.716C778.216 498.756 775.705 497.227 772.763 495.855C769.821 494.483 767.036 493.543 763.82 492.759C760.604 491.976 757.545 491.624 754.485 491.272C751.426 490.92 748.092 491.156 744.916 491.824C738.837 492.571 732.366 494.926 727.229 498.261C724.367 499.791 722.092 501.596 719.544 503.989C717.427 506.226 715.309 508.462 713.349 511.129C711.389 513.797 709.86 516.307 708.488 519.249C707.116 522.191 706.176 524.976 705.392 528.192C704.609 531.409 704.257 534.468 703.905 537.527C703.553 540.586 703.789 543.92 704.457 547.097C705.124 550.273 705.792 553.45 706.734 556.038C711.13 568.117 720.115 578.037 731.725 583.093C735.099 584.308 737.884 585.248 741.1 586.032Z" fill="#225494" fill-opacity="0.1"/>
<path d="M1067.57 979.666C1069.8 981.784 1072.04 983.901 1074.71 985.861C1077.37 987.821 1079.89 989.35 1082.83 990.722C1085.77 992.094 1088.55 993.034 1091.77 993.818C1094.99 994.601 1098.05 994.953 1101.11 995.305C1104.16 995.657 1107.5 995.421 1110.67 994.753C1113.85 994.086 1117.03 993.418 1119.62 992.476C1122.64 991.377 1125.5 989.847 1127.93 988.473C1130.79 986.943 1133.07 985.138 1135.62 982.745C1137.73 980.509 1139.85 978.272 1141.81 975.605C1143.77 972.937 1145.3 970.427 1146.67 967.485C1148.04 964.543 1148.98 961.758 1149.77 958.542C1150.55 955.325 1150.9 952.266 1151.25 949.207C1151.61 946.148 1151.37 942.814 1150.7 939.637C1150.03 936.461 1149.37 933.284 1148.42 930.696C1147.33 927.676 1145.8 924.813 1144.42 922.382C1142.89 919.52 1141.09 917.245 1138.69 914.697C1136.46 912.58 1134.22 910.462 1131.55 908.502C1128.89 906.542 1126.38 905.013 1123.43 903.641C1120.49 902.269 1117.71 901.329 1114.49 900.545C1111.27 899.762 1108.22 899.41 1105.16 899.058C1102.1 898.706 1098.76 898.942 1095.59 899.61C1089.51 900.357 1083.04 902.712 1077.9 906.047C1075.04 907.577 1072.76 909.382 1070.21 911.775C1068.1 914.012 1065.98 916.248 1064.02 918.915C1062.06 921.583 1060.53 924.093 1059.16 927.035C1057.79 929.977 1056.85 932.762 1056.06 935.979C1055.28 939.195 1054.93 942.254 1054.58 945.313C1054.22 948.373 1054.46 951.706 1055.13 954.883C1055.8 958.059 1056.46 961.236 1057.4 963.824C1058.5 966.844 1060.03 969.707 1061.41 972.138C1063.37 974.843 1065.33 977.549 1067.57 979.666Z" fill="#225494" fill-opacity="0.1"/>
<path d="M606.019 829.629C607.55 832.492 609.355 834.766 611.748 837.315C613.984 839.432 616.22 841.549 618.888 843.509C621.555 845.47 624.066 846.998 627.008 848.37C629.95 849.742 632.735 850.683 635.951 851.466C639.167 852.249 642.226 852.602 645.286 852.954C648.345 853.306 651.679 853.069 654.855 852.402C658.032 851.734 661.208 851.066 664.228 849.967C667.248 848.868 670.11 847.338 672.973 845.807C675.836 844.277 678.11 842.472 680.658 840.079C683.207 837.686 684.893 835.607 686.853 832.939C688.813 830.272 690.342 827.761 691.714 824.819C693.086 821.877 694.026 819.092 694.81 815.876C695.593 812.66 695.945 809.6 696.297 806.541C696.649 803.482 696.413 800.148 695.745 796.972C695.078 793.795 694.41 790.618 693.311 787.599C692.212 784.579 690.682 781.716 689.151 778.854C687.621 775.991 685.816 773.717 683.423 771.168C681.187 769.051 678.95 766.934 676.283 764.974C673.615 763.013 671.105 761.485 668.163 760.113C665.221 758.741 662.436 757.8 659.22 757.017C656.003 756.233 652.944 755.881 649.885 755.529C646.826 755.177 643.492 755.414 640.315 756.081C633.805 756.985 627.766 759.183 622.629 762.519C619.766 764.049 617.492 765.854 614.943 768.247C612.826 770.483 610.709 772.719 608.749 775.387C606.789 778.054 605.26 780.565 603.888 783.507C602.516 786.449 601.576 789.234 600.792 792.45C600.009 795.666 599.657 798.726 599.304 801.785C598.952 804.844 599.189 808.178 599.856 811.354C600.524 814.531 601.192 817.708 602.291 820.727C602.958 823.904 604.058 826.924 606.019 829.629Z" fill="#225494" fill-opacity="0.1"/>
<path d="M540.164 816.47C543.341 815.802 546.518 815.134 549.537 814.035C561.616 809.639 571.536 800.655 576.592 789.044C582.079 777.276 582.585 763.902 578.346 752.255C577.247 749.235 575.716 746.373 574.343 743.941C572.813 741.079 571.008 738.805 568.615 736.256C566.378 734.139 564.142 732.022 561.475 730.061C558.807 728.101 556.297 726.572 553.355 725.2C539.233 718.616 521.388 719.248 507.821 727.606C504.958 729.137 502.684 730.942 500.135 733.335C498.018 735.571 495.901 737.807 493.941 740.475C491.98 743.142 490.451 745.653 489.08 748.595C483.592 760.362 483.086 773.736 487.326 785.384C488.425 788.403 489.955 791.266 491.329 793.697C492.859 796.56 494.664 798.834 497.057 801.383C499.293 803.5 501.529 805.617 504.197 807.577C506.864 809.538 509.375 811.066 512.317 812.438C515.259 813.81 518.044 814.751 521.26 815.534C524.476 816.317 527.536 816.67 530.595 817.022C534.085 817.217 537.419 816.98 540.164 816.47Z" fill="#225494" fill-opacity="0.1"/>
<path d="M973.713 712.409C976.38 714.369 978.891 715.898 981.833 717.27C984.774 718.641 987.559 719.582 990.776 720.365C993.992 721.149 997.051 721.501 1000.11 721.853C1003.17 722.205 1006.5 721.969 1009.68 721.301C1012.86 720.633 1016.03 719.966 1019.05 718.867C1022.07 717.768 1024.94 716.237 1027.37 714.864C1030.23 713.333 1032.5 711.529 1035.05 709.135C1037.17 706.899 1039.29 704.663 1041.25 701.995C1043.21 699.328 1044.74 696.817 1046.11 693.875C1047.48 690.934 1048.42 688.149 1049.2 684.932C1049.99 681.716 1050.34 678.657 1050.69 675.597C1051.04 672.538 1050.81 669.204 1050.14 666.028C1049.47 662.851 1048.8 659.675 1047.86 657.086C1046.76 654.067 1045.23 651.204 1043.7 648.342C1042.17 645.479 1040.37 643.205 1037.97 640.656C1035.58 638.107 1033.5 636.422 1030.83 634.461C1028.17 632.501 1025.66 630.972 1022.71 629.6C1019.77 628.229 1016.99 627.288 1013.77 626.505C1010.55 625.721 1007.49 625.369 1004.44 625.017C1001.38 624.665 998.042 624.901 994.866 625.569C988.356 626.473 982.316 628.671 977.179 632.006C974.317 633.537 972.043 635.342 969.494 637.735C967.377 639.971 965.26 642.207 963.299 644.875C961.339 647.542 959.81 650.053 958.438 652.995C957.067 655.936 956.126 658.721 955.343 661.938C954.559 665.154 954.207 668.213 953.855 671.273C953.503 674.332 953.739 677.666 954.407 680.842C955.075 684.019 955.742 687.195 956.841 690.215C957.94 693.235 959.471 696.097 960.844 698.528C962.375 701.391 964.179 703.665 966.573 706.214C968.966 708.763 971.202 710.88 973.713 712.409Z" fill="#225494" fill-opacity="0.1"/>
<path d="M712.154 1110.49C714.39 1112.61 716.626 1114.73 719.294 1116.69C721.961 1118.65 724.472 1120.18 727.414 1121.55C739.181 1127.04 752.555 1127.54 764.203 1123.3C767.222 1122.2 770.085 1120.67 772.516 1119.3C775.379 1117.77 777.653 1115.96 780.202 1113.57C782.319 1111.33 784.436 1109.1 786.396 1106.43C788.356 1103.76 789.885 1101.25 791.257 1098.31C792.629 1095.37 793.569 1092.58 794.353 1089.37C795.136 1086.15 795.488 1083.09 795.84 1080.03C796.193 1076.97 795.956 1073.64 795.289 1070.46C794.621 1067.29 793.953 1064.11 792.854 1061.09C791.755 1058.07 790.225 1055.21 788.851 1052.78C787.321 1049.91 785.516 1047.64 783.123 1045.09C780.887 1042.97 778.651 1040.86 775.983 1038.9C773.315 1036.94 770.805 1035.41 767.863 1034.04C764.921 1032.66 762.136 1031.72 758.92 1030.94C755.704 1030.16 752.644 1029.8 749.585 1029.45C746.526 1029.1 743.192 1029.34 740.016 1030C733.505 1030.91 727.466 1033.11 722.329 1036.44C719.466 1037.97 717.192 1039.78 714.644 1042.17C712.526 1044.41 710.409 1046.64 708.449 1049.31C706.489 1051.98 704.96 1054.49 703.588 1057.43C702.216 1060.37 701.276 1063.16 700.492 1066.37C699.709 1069.59 699.357 1072.65 699.005 1075.71C698.653 1078.77 698.889 1082.1 699.557 1085.28C700.224 1088.45 700.892 1091.63 701.834 1094.22C702.933 1097.24 704.464 1100.1 705.994 1102.96C707.956 1105.67 709.917 1108.38 712.154 1110.49Z" fill="#225494" fill-opacity="0.1"/>
<path d="M1017.91 570.772C1017.56 573.831 1017.8 577.165 1018.46 580.342C1019.13 583.518 1019.8 586.695 1020.74 589.283C1025.14 601.362 1034.12 611.282 1045.73 616.338C1048.67 617.71 1051.46 618.65 1054.68 619.434C1057.89 620.217 1060.95 620.569 1064.01 620.921C1067.07 621.273 1070.4 621.037 1073.58 620.369C1076.76 619.702 1079.93 619.034 1082.95 617.935C1095.03 613.539 1104.95 604.554 1110.01 592.944C1115.49 581.176 1116 567.802 1111.76 556.155C1110.66 553.135 1109.13 550.272 1107.76 547.841C1106.23 544.978 1104.42 542.704 1102.03 540.156C1099.79 538.038 1097.56 535.921 1094.89 533.961C1092.22 532.001 1089.71 530.472 1086.77 529.1C1072.65 522.515 1054.8 523.148 1041.24 531.506C1038.37 533.036 1036.1 534.841 1033.55 537.234C1031.43 539.47 1029.32 541.707 1027.36 544.374C1025.4 547.042 1023.87 549.552 1022.49 552.494C1021.12 555.436 1020.18 558.221 1019.4 561.437C1018.62 564.654 1018.11 567.281 1017.91 570.772Z" fill="#225494" fill-opacity="0.1"/>
</g>
<defs>
<clipPath id="clip0_324_3904">
<rect width="1368" height="1368" fill="white" transform="translate(0 467.884) rotate(-20)"/>
</clipPath>
</defs>
</svg>
