<?xml version="1.0" standalone="no"?>
<!DOCTYPE svg PUBLIC "-//W3C//DTD SVG 20010904//EN"
 "http://www.w3.org/TR/2001/REC-SVG-20010904/DTD/svg10.dtd">
<svg version="1.0" xmlns="http://www.w3.org/2000/svg"
 width="284.000000pt" height="284.000000pt" viewBox="0 0 284.000000 284.000000"
 preserveAspectRatio="xMidYMid meet">
<metadata>
Created by potrace 1.14, written by Peter Selinger 2001-2017
</metadata>
<g transform="translate(0.000000,284.000000) scale(0.100000,-0.100000)"
fill="#000000" stroke="none">
<path d="M1250 2833 c-230 -38 -265 -58 -234 -132 17 -40 33 -42 155 -17 41 8
100 16 130 18 l54 3 0 -147 c0 -94 -3 -148 -10 -149 -5 0 -19 -2 -30 -4 -11
-2 -40 -7 -64 -10 -73 -10 -230 -65 -251 -87 -26 -28 -25 -63 0 -88 26 -26 54
-25 126 4 90 37 202 55 323 52 59 -2 115 -6 126 -9 11 -4 31 -8 45 -11 14 -2
52 -14 84 -25 73 -26 98 -26 119 -3 22 24 22 75 0 94 -34 28 -193 75 -268 79
-72 4 -70 1 -70 161 0 163 -11 148 105 135 36 -4 90 -14 120 -22 66 -17 96
-11 114 24 12 22 12 32 1 57 -13 31 -35 41 -130 58 -16 3 -41 9 -55 12 -30 7
-354 13 -390 7z"/>
<path d="M681 2635 c-51 -30 -131 -87 -181 -130 -144 -124 -320 -349 -320
-410 0 -21 44 -64 61 -61 40 7 57 21 88 71 18 31 55 83 83 117 l51 60 103
-103 c98 -97 116 -123 95 -131 -15 -6 -101 -139 -131 -203 -37 -80 -78 -221
-85 -293 -3 -31 -7 -58 -9 -59 -2 -2 -54 -4 -117 -4 -186 0 -189 0 -184 14 2
6 6 39 9 72 8 76 14 112 27 153 14 43 5 78 -25 97 -50 33 -97 -4 -110 -89 -4
-21 -8 -41 -11 -45 -17 -29 -26 -327 -13 -447 10 -92 37 -196 55 -216 21 -24
68 -23 93 2 22 22 24 40 10 89 -10 37 -16 71 -28 172 l-8 66 148 0 c82 0 150
-3 152 -6 2 -3 7 -31 10 -61 15 -140 92 -330 184 -451 l50 -66 -107 -107 -107
-106 -34 41 c-19 23 -56 74 -83 113 -69 104 -96 118 -142 72 -29 -29 -26 -59
12 -119 109 -175 330 -388 485 -468 43 -22 79 -14 98 21 22 41 4 67 -88 129
-48 33 -102 72 -120 88 l-33 28 141 142 c162 165 160 159 80 253 -99 117 -170
256 -194 380 -3 19 -8 46 -11 60 -7 33 -7 217 0 255 31 166 102 314 211 436
71 80 68 87 -88 245 -73 74 -134 137 -135 141 -3 9 142 119 195 149 29 17 42
35 48 73 3 18 -41 61 -63 61 -10 0 -38 -12 -62 -25z"/>
<path d="M2050 2640 c-20 -20 -26 -56 -12 -76 4 -6 41 -33 82 -61 41 -28 92
-66 113 -84 l38 -34 -130 -131 c-71 -71 -134 -141 -140 -155 -10 -29 -2 -49
42 -94 91 -96 167 -234 203 -375 19 -71 22 -107 20 -220 -2 -74 -6 -146 -9
-159 -43 -170 -116 -309 -219 -415 -52 -54 -44 -71 107 -223 74 -75 135 -138
135 -141 0 -10 -69 -65 -148 -119 -102 -69 -116 -96 -74 -145 23 -27 58 -22
123 18 164 99 344 280 448 450 35 58 38 80 15 112 -12 18 -24 22 -52 20 -32
-3 -41 -11 -91 -84 -31 -45 -71 -99 -89 -120 l-32 -39 -107 107 -106 106 51
70 c28 38 62 92 76 120 30 59 77 182 70 182 -2 0 0 8 5 18 5 10 12 38 16 62 4
25 9 52 10 60 2 8 4 27 4 41 l1 25 155 1 c85 0 153 -2 151 -6 -2 -3 -7 -38
-10 -77 -4 -39 -11 -85 -16 -102 -5 -18 -9 -35 -9 -37 0 -3 -3 -20 -6 -39 -8
-39 6 -70 36 -87 27 -14 76 5 85 35 4 11 6 21 5 21 -1 0 3 13 9 30 31 82 46
394 25 520 -19 113 -36 180 -51 196 -23 25 -69 24 -95 -2 -20 -20 -21 -38 -4
-109 7 -31 13 -68 23 -147 l9 -63 -71 -1 c-92 -1 -229 1 -232 4 -1 1 -6 29 -9
62 -17 148 -90 327 -182 450 -29 38 -53 72 -53 75 0 3 46 52 103 108 l104 103
36 -40 c20 -22 58 -73 84 -113 56 -85 69 -97 105 -98 34 0 71 44 62 74 -16 54
-139 222 -229 311 -113 114 -283 235 -329 235 -14 0 -35 -9 -46 -20z"/>
<path d="M1380 2160 c-31 -27 -33 -68 -5 -96 28 -28 52 -30 82 -9 27 19 33 52
16 86 -16 33 -65 43 -93 19z"/>
<path d="M887 1952 c-37 -40 -13 -102 41 -108 59 -7 92 53 56 104 -19 28 -74
30 -97 4z"/>
<path d="M1857 1952 c-37 -40 -13 -102 41 -108 59 -7 92 53 56 104 -19 28 -74
30 -97 4z"/>
<path d="M1375 1926 c-13 -13 -22 -32 -20 -42 2 -11 4 -25 4 -31 1 -7 13 -19
29 -27 23 -12 32 -12 60 -1 17 8 32 20 33 27 0 7 2 21 4 32 5 23 -37 66 -65
66 -11 0 -32 -11 -45 -24z"/>
<path d="M1047 1792 c-23 -25 -21 -64 4 -91 17 -18 28 -22 53 -17 53 11 72 59
40 104 -19 28 -74 30 -97 4z"/>
<path d="M1697 1792 c-36 -39 -14 -97 39 -108 59 -11 94 52 58 104 -19 28 -74
30 -97 4z"/>
<path d="M1341 1714 c-158 -42 -252 -201 -215 -367 16 -75 80 -153 159 -195
43 -23 62 -27 135 -27 73 0 92 4 135 27 226 119 221 439 -9 544 -65 29 -137
36 -205 18z m156 -141 c21 -10 48 -35 64 -62 50 -78 34 -163 -44 -225 -69 -55
-185 -36 -236 39 -61 90 -21 220 79 258 31 11 103 6 137 -10z"/>
<path d="M703 1480 c-46 -18 -42 -101 4 -118 73 -25 126 60 67 107 -29 23 -38
24 -71 11z"/>
<path d="M927 1479 c-44 -25 -40 -100 5 -115 41 -14 47 -13 72 13 54 53 -12
140 -77 102z"/>
<path d="M1841 1472 c-28 -22 -32 -49 -14 -84 13 -27 27 -33 67 -28 50 5 68
78 27 112 -29 23 -53 23 -80 0z"/>
<path d="M2080 1483 c-62 -25 -43 -125 23 -125 61 0 89 71 45 112 -22 20 -40
23 -68 13z"/>
<path d="M1047 1142 c-23 -25 -21 -68 3 -92 58 -58 142 20 94 88 -19 28 -74
30 -97 4z"/>
<path d="M1702 1144 c-45 -31 -14 -114 43 -114 33 0 65 33 65 68 0 54 -60 80
-108 46z"/>
<path d="M1381 1013 c-63 -53 -3 -145 70 -108 27 15 35 33 30 75 -3 20 -39 50
-61 50 -10 0 -27 -8 -39 -17z"/>
<path d="M887 982 c-37 -41 -6 -112 48 -112 14 0 34 9 45 20 11 11 20 31 20
45 0 55 -77 87 -113 47z"/>
<path d="M1856 978 c-22 -31 -20 -64 4 -88 41 -41 110 -10 110 49 0 56 -83 84
-114 39z"/>
<path d="M1371 775 c-33 -43 -4 -105 50 -105 25 0 58 21 60 38 0 4 2 15 4 24
2 10 -6 29 -17 43 -26 34 -70 34 -97 0z"/>
<path d="M1725 624 c-195 -70 -397 -71 -589 -5 -75 26 -82 26 -111 -3 -24 -24
-25 -32 -11 -73 10 -30 138 -75 294 -103 1 0 12 0 25 0 22 0 22 -1 22 -151 l0
-151 -65 6 c-64 6 -90 10 -140 22 -84 19 -106 17 -129 -11 -23 -30 -21 -58 8
-87 30 -31 224 -61 391 -62 153 0 340 28 387 60 33 21 34 66 3 98 -19 19 -21
19 -117 2 -54 -10 -123 -20 -153 -23 l-55 -5 0 151 c0 94 4 151 10 152 95 6
192 27 278 59 58 22 87 50 87 83 0 18 -42 67 -57 67 -4 -1 -39 -12 -78 -26z"/>
</g>
</svg>
